<?xml version="1.0" encoding="UTF-8"?>
<svg width="31px" height="25px" viewBox="0 0 31 25" version="1.1" xmlns="http://www.w3.org/2000/svg" xmlns:xlink="http://www.w3.org/1999/xlink">
    <!-- Generator: Sketch 55.2 (78181) - https://sketchapp.com -->
    <title>Combined Shape</title>
    <desc>Created with Sketch.</desc>
    <defs>
        <path d="M10.9576148,22.2083333 L18.2913074,29.5420259 C18.9584531,30.2091716 18.9584531,31.2908284 18.2913074,31.9579741 C17.6241618,32.6251197 16.5425049,32.6251197 15.8753592,31.9579741 L5.62535925,21.7079741 C4.95821358,21.0408284 4.95821358,19.9591716 5.62535925,19.2920259 L15.8753592,9.04202592 C16.5425049,8.37488025 17.6241618,8.37488025 18.2913074,9.04202592 C18.9584531,9.70917158 18.9584531,10.7908284 18.2913074,11.4579741 L10.9576148,18.7916667 L34.1666667,18.7916667 C35.1101531,18.7916667 35.875,19.5565136 35.875,20.5 C35.875,21.4434864 35.1101531,22.2083333 34.1666667,22.2083333 L10.9576148,22.2083333 Z" id="path-1"></path>
    </defs>
    <g id="Grow-Nation-Screens" stroke="none" stroke-width="1" fill="none" fill-rule="evenodd">
        <g id="GrowNation-Registration" transform="translate(-63.000000, -43.000000)">
            <g id="Top-Nav">
                <g id="icon" transform="translate(58.000000, 35.000000)">
                    <mask id="mask-2" fill="white">
                        <use xlink:href="#path-1"></use>
                    </mask>
                    <use id="Combined-Shape" fill="#1C4A53" fill-rule="nonzero" xlink:href="#path-1"></use>
                </g>
            </g>
        </g>
    </g>
</svg>