<?xml version="1.0" encoding="UTF-8"?>
<svg width="247px" height="43px" viewBox="0 0 247 43" version="1.1" xmlns="http://www.w3.org/2000/svg" xmlns:xlink="http://www.w3.org/1999/xlink">
    <!-- Generator: Sketch 55.2 (78181) - https://sketchapp.com -->
    <title>Group 3</title>
    <desc>Created with Sketch.</desc>
    <g id="Grow-Nation-Screens" stroke="none" stroke-width="1" fill="none" fill-rule="evenodd">
        <g id="GrowNation-Registration" transform="translate(-575.000000, -34.000000)">
            <g id="Top-Nav">
                <g id="Group-5">
                    <g id="Group-3" transform="translate(575.000000, 34.000000)">
                        <g id="Group-2">
                            <g id="Group">
                                <path d="M12.3225074,23.0203271 C11.5305242,21.6927392 10.4383847,20.5676448 9.14805779,19.7568861 C7.68024379,18.8342851 5.95329104,18.2958723 4.10328573,18.2958723 C3.67317674,18.2958723 3.26338485,18.3241272 2.88081019,18.3731808 C2.6212881,18.408107 2.36904949,18.4500969 2.11642755,18.5058219 C0.771666122,22.3284745 -1.42108547e-14,25.9066437 -1.42108547e-14,28.6603192 C-1.42108547e-14,31.0223504 0.580378792,33.2517406 1.60428352,35.1946574 C3.64557616,30.6518973 6.86104334,26.780191 10.8477933,23.9778543 C11.3327201,23.6423274 11.8172636,23.3209279 12.3225074,23.0203271" id="Fill-1" fill="#D6AB4F"></path>
                                <path d="M26.6517685,25.5293623 C26.4263638,24.0966034 26.0648729,22.5382671 25.5868462,20.9100785 C20.4734561,21.0007296 15.7288403,22.6430457 11.7969081,25.4033925 C7.75534036,28.2339842 4.56747376,32.2383315 2.68986786,36.9345314 C3.07205918,37.4588168 3.48836788,37.948176 3.9391773,38.4092803 C4.6495088,39.1360591 5.43420853,39.7792505 6.28752636,40.3310059 C7.56405303,36.1657627 10.0630552,32.5601234 13.353274,29.9461527 C16.8485803,27.1716784 21.238222,25.5152348 26.0035383,25.5152348 C26.1944423,25.5152348 26.4129468,25.5222986 26.6517685,25.5293623" id="Fill-3" fill="#1C4A53"></path>
                                <path d="M26.5563165,31.8679961 C26.7951381,30.8406165 26.9247075,29.7645757 26.9247075,28.66028 C26.9247075,28.2129107 26.9043904,27.7447427 26.8633729,27.2624473 L26.788238,27.2553835 C26.5697334,27.2487122 26.3102113,27.2412561 26.0035383,27.2412561 C21.6204134,27.2412561 17.5926459,28.7579948 14.3771787,31.3087845 C11.2709638,33.7759867 8.92951489,37.206995 7.78945774,41.1697448 C9.14111931,41.8054801 10.6020332,42.2253793 12.1449821,42.3788191 C13.0190003,39.4155864 14.7800705,36.843998 17.1012023,34.9846686 C19.5588036,33.020953 22.6512182,31.8538686 26.0035383,31.8538686 C26.1603249,31.8538686 26.3443287,31.8609323 26.5563165,31.8679961" id="Fill-5" fill="#1C4A53"></path>
                                <path d="M12.6159936,20.5395076 L12.6159936,0.00015697167 C9.42084349,3.63405114 6.5335165,8.33025108 4.32815376,13.0825684 C3.77537554,14.2775152 3.26361485,15.4728545 2.79938848,16.6536739 C3.24291442,16.6050127 3.67954021,16.5767578 4.10313239,16.5767578 C6.26709427,16.5767578 8.30148677,17.2058217 10.0284395,18.29599 C10.9979098,18.9042552 11.871928,19.6659602 12.6159936,20.5395076" id="Fill-7" fill="#FACF59"></path>
                                <path d="M14.3021205,6.63911679 L17.804327,4.57062261 C16.6983872,2.92830651 15.5242127,1.390769 14.3021205,0 L14.3021205,6.63911679 Z" id="Fill-9" fill="#57B367"></path>
                                <path d="M22.0232284,11.8945676 L14.3019671,16.4581264 L14.3019671,21.9230951 C17.565352,20.3019702 21.204028,19.3373793 25.0405081,19.2047382 C24.3784776,17.2127677 23.5458603,15.1442736 22.5901903,13.0824507 C22.4054198,12.6841351 22.2145158,12.2862119 22.0232284,11.8945676" id="Fill-11" fill="#57B367"></path>
                                <path d="M14.3021205,14.4664306 L21.2517157,10.363976 C20.4735327,8.87549218 19.6336319,7.40780706 18.7396798,6.00330304 L14.3021205,8.62394508 L14.3021205,14.4664306 Z" id="Fill-13" fill="#57B367"></path>
                                <path d="M13.8925586,42.434858 C17.4357826,42.3230157 20.6374495,40.8062769 22.9788984,38.4093195 C24.3102429,37.0468054 25.3613648,35.4040969 26.037579,33.5804785 L26.0034616,33.5804785 C23.0337162,33.5804785 20.3031758,34.6074657 18.1388306,36.3408253 C16.2002735,37.8920979 14.7048589,40.002582 13.8925586,42.434858" id="Fill-15" fill="#1C4A53"></path>
                            </g>
                        </g>
                        <path d="M51.4692022,23.5617998 L60.7532426,23.5617998 C60.8287226,24.1656398 60.8538826,24.6688399 60.8538826,25.0965599 C60.8538826,30.2040401 57.2056825,33.8774003 52.1233622,33.8774003 C47.015882,33.8774003 43.0406018,30.0279201 43.0406018,25.0713999 C43.0406018,20.1400397 46.990722,16.2653995 52.0478822,16.2653995 C55.7967224,16.2653995 59.0926825,18.0265996 60.2752026,21.3225597 L56.2747624,22.4799198 C55.2935224,20.5677597 53.6832823,20.0645597 52.0478822,20.0645597 C49.3054421,20.0645597 47.217162,22.2283198 47.217162,25.0713999 C47.217162,27.93964 49.3557621,30.1034001 52.1736822,30.1034001 C54.3877623,30.1034001 55.9980024,28.94604 56.6270024,27.0842 L51.4692022,27.0842 L51.4692022,23.5617998 Z M81.6936971,33.5000002 L76.6868569,33.5000002 L71.6045367,27.7132 L70.3968566,27.7132 L70.3968566,33.5000002 L66.2454565,33.5000002 L66.2454565,16.6427995 L74.7746968,16.6427995 C78.422897,16.6427995 80.8382571,18.8568796 80.8382571,22.1528398 C80.8382571,24.9204399 79.127377,26.90808 76.4100969,27.51192 L81.6936971,33.5000002 Z M70.3968566,24.2411198 L74.3218168,24.2411198 C75.8062569,24.2411198 76.7623369,23.4359998 76.7623369,22.2031598 C76.7623369,20.9954797 75.8062569,20.1903597 74.3218168,20.1903597 L70.3968566,20.1903597 L70.3968566,24.2411198 Z M94.5326313,16.2653995 C99.5646315,16.2653995 103.514752,20.1651997 103.514752,25.0965599 C103.514752,30.0027601 99.5646315,33.8774003 94.5326313,33.8774003 C89.5006311,33.8774003 85.5505109,30.0027601 85.5505109,25.0965599 C85.5505109,20.1651997 89.5006311,16.2653995 94.5326313,16.2653995 Z M94.5326313,30.0782401 C97.2750714,30.0782401 99.3633515,27.9648 99.3633515,25.0965599 C99.3633515,22.2031598 97.2750714,20.0645597 94.5326313,20.0645597 C91.7901912,20.0645597 89.7019111,22.2031598 89.7019111,25.0965599 C89.7019111,27.9648 91.7901912,30.0782401 94.5326313,30.0782401 Z M131.776767,16.6427995 L126.971206,33.5000002 L122.517886,33.5000002 L119.699966,23.0837598 L116.856886,33.5000002 L112.428726,33.5000002 L107.623165,16.6427995 L111.875206,16.6427995 L114.818926,27.26032 L117.712326,16.6427995 L121.662446,16.6427995 L124.555846,27.26032 L127.499566,16.6427995 L131.776767,16.6427995 Z M152.541101,16.6427995 L152.541101,33.5000002 L149.119341,33.5000002 L140.590101,23.7379198 L140.590101,33.5000002 L136.4387,33.5000002 L136.4387,16.6427995 L139.88562,16.6427995 L148.414861,26.7067999 L148.414861,16.6427995 L152.541101,16.6427995 Z M175.318236,33.5000002 L170.890075,33.5000002 L169.707555,30.4304801 L162.612435,30.4304801 L161.429915,33.5000002 L156.976595,33.5000002 L164.021395,16.6427995 L168.273435,16.6427995 L175.318236,33.5000002 Z M168.323755,26.85776 L166.159995,21.3225597 L164.021395,26.85776 L168.323755,26.85776 Z M192.15761,20.2658397 L186.69789,20.2658397 L186.69789,33.5000002 L182.57165,33.5000002 L182.57165,20.2658397 L177.111929,20.2658397 L177.111929,16.6427995 L192.15761,16.6427995 L192.15761,20.2658397 Z M201.323184,33.5000002 L197.171784,33.5000002 L197.171784,16.6427995 L201.323184,16.6427995 L201.323184,33.5000002 Z M215.696878,16.2653995 C220.728878,16.2653995 224.678999,20.1651997 224.678999,25.0965599 C224.678999,30.0027601 220.728878,33.8774003 215.696878,33.8774003 C210.664878,33.8774003 206.714758,30.0027601 206.714758,25.0965599 C206.714758,20.1651997 210.664878,16.2653995 215.696878,16.2653995 Z M215.696878,30.0782401 C218.439318,30.0782401 220.527598,27.9648 220.527598,25.0965599 C220.527598,22.2031598 218.439318,20.0645597 215.696878,20.0645597 C212.954438,20.0645597 210.866158,22.2031598 210.866158,25.0965599 C210.866158,27.9648 212.954438,30.0782401 215.696878,30.0782401 Z M246.172973,16.6427995 L246.172973,33.5000002 L242.751213,33.5000002 L234.221973,23.7379198 L234.221973,33.5000002 L230.070572,33.5000002 L230.070572,16.6427995 L233.517493,16.6427995 L242.046733,26.7067999 L242.046733,16.6427995 L246.172973,16.6427995 Z" id="GROWNATION" fill="#1C4A53" fill-rule="nonzero"></path>
                    </g>
                </g>
            </g>
        </g>
    </g>
</svg>