<?xml version="1.0" encoding="UTF-8"?>
<svg width="177px" height="83px" viewBox="0 0 177 83" version="1.1" xmlns="http://www.w3.org/2000/svg" xmlns:xlink="http://www.w3.org/1999/xlink">
    <!-- Generator: Sketch 55.2 (78181) - https://sketchapp.com -->
    <title>logo</title>
    <desc>Created with Sketch.</desc>
    <g id="Grow-Nation-Screens" stroke="none" stroke-width="1" fill="none" fill-rule="evenodd">
        <g id="GrowNation-Landing-Page-" transform="translate(-619.000000, -57.000000)" fill="#FFFFFF">
            <g id="logo" transform="translate(619.000000, 57.000000)">
                <g id="Group-2" transform="translate(74.699456, 0.000000)">
                    <g id="Group">
                        <path d="M14.122766,25.8060353 C13.2150779,24.3177949 11.9633821,23.0565519 10.4845446,22.1476827 C8.80229013,21.113437 6.82303797,20.5098704 4.70275585,20.5098704 C4.20981003,20.5098704 3.74014953,20.5415445 3.30168257,20.5965341 C3.00424557,20.6356868 2.71515613,20.6827579 2.42562734,20.7452262 C0.884402797,25.030461 -1.42108547e-14,29.0416274 -1.42108547e-14,32.1285274 C-1.42108547e-14,34.7763899 0.665169316,37.2755603 1.83866155,39.4535911 C4.17817715,34.3611079 7.86340847,30.0208834 12.4326032,26.8794336 C12.9883755,26.5033043 13.5437084,26.143012 14.122766,25.8060353" id="Fill-1"></path>
                        <path d="M30.5454625,28.6186908 C30.2871272,27.0125526 29.8728243,25.2656408 29.3249603,23.4404238 C23.4645286,23.5420447 18.0267475,25.3830988 13.5203791,28.4774774 C8.88835794,31.6506012 5.2347595,36.1395178 3.0828445,41.4040086 C3.52087212,41.9917382 3.99800149,42.5403151 4.51467198,43.057218 C5.32877947,43.8719449 6.22812002,44.5929694 7.20610344,45.2114932 C8.66912446,40.5422105 11.5332188,36.50025 15.3041225,33.5699605 C19.3100761,30.4597449 24.3410232,28.6028538 29.802529,28.6028538 C30.0213231,28.6028538 30.2717502,28.6107723 30.5454625,28.6186908" id="Fill-3"></path>
                        <path d="M30.4360654,35.7243678 C30.7097778,34.5726641 30.8582766,33.3664108 30.8582766,32.1284834 C30.8582766,31.6269776 30.8349913,31.1021562 30.7879813,30.5614978 L30.7018695,30.5535793 C30.4514425,30.5461007 30.1540055,30.5377423 29.802529,30.5377423 C24.7790508,30.5377423 20.1628461,32.2380228 16.4776147,35.0974855 C12.9175969,37.8632459 10.2340737,41.7094432 8.92745971,46.1517286 C10.4765925,46.8643947 12.1509388,47.3351062 13.919305,47.5071139 C14.9210131,44.185298 16.939367,41.3025197 19.5996049,39.2181913 C22.4162499,37.0168449 25.9604513,35.7085307 29.802529,35.7085307 C29.9822214,35.7085307 30.1931073,35.7164492 30.4360654,35.7243678" id="Fill-5"></path>
                        <path d="M14.459129,23.0250098 L14.459129,0.000175966938 C10.797183,4.07381057 7.48803155,9.33830143 4.96047601,14.6657005 C4.32693958,16.0052488 3.74041314,17.345237 3.20836556,18.6689483 C3.71668847,18.6143985 4.21710317,18.5827245 4.70258012,18.5827245 C7.18268632,18.5827245 9.51429369,19.287912 11.4935459,20.5100024 C12.604651,21.1918743 13.6063591,22.0457538 14.459129,23.0250098" id="Fill-7"></path>
                        <path d="M16.3915908,7.44252163 L20.4054527,5.12371731 C19.1379405,3.28266322 17.7922248,1.55906707 16.3915908,0 L16.3915908,7.44252163 Z" id="Fill-9"></path>
                        <path d="M25.2407152,13.3339387 L16.3914151,18.4497375 L16.3914151,24.5760264 C20.1315646,22.7587279 24.3018336,21.677411 28.6988048,21.528719 C27.9400549,19.2956985 26.9857962,16.9768942 25.8905074,14.6655685 C25.6787428,14.2190524 25.4599487,13.7729762 25.2407152,13.3339387" id="Fill-11"></path>
                        <path d="M16.3915908,16.217025 L24.3564882,11.6181291 C23.4646165,9.94952259 22.5020102,8.30423172 21.4774561,6.72976755 L16.3915908,9.66753557 L16.3915908,16.217025 Z" id="Fill-13"></path>
                        <path d="M15.922194,47.5699341 C19.9830658,47.4445577 23.6524807,45.7442771 26.3360039,43.057262 C27.8618514,41.529869 29.0665372,39.688375 29.8415429,37.6440791 L29.8024411,37.6440791 C26.3988304,37.6440791 23.2693713,38.7953428 20.7888257,40.7384577 C18.5670548,42.4774509 16.8531674,44.8433264 15.922194,47.5699341" id="Fill-15"></path>
                    </g>
                </g>
                <path d="M8.05224848,73.777227 L16.0827341,73.777227 C16.1480226,74.299535 16.1697855,74.7347917 16.1697855,75.1047598 C16.1697855,79.5226151 13.0141746,82.6999888 8.61808216,82.6999888 C4.20022691,82.6999888 0.761699181,79.3702752 0.761699181,75.082997 C0.761699181,70.8174816 4.17846408,67.4660052 8.55279366,67.4660052 C11.7954559,67.4660052 14.6463871,68.9894036 15.6692403,71.8403348 L12.2089497,72.8414251 C11.3601992,71.1874498 9.96737785,70.7521931 8.55279366,70.7521931 C6.18064478,70.7521931 4.37432958,72.6237968 4.37432958,75.082997 C4.37432958,77.56396 6.22417045,79.4355637 8.66160782,79.4355637 C10.5767372,79.4355637 11.9695586,78.4344734 12.5136294,76.8240237 L8.05224848,76.8240237 L8.05224848,73.777227 Z M34.1957554,82.3735463 L29.8649515,82.3735463 L25.4688591,77.3680945 L24.4242431,77.3680945 L24.4242431,82.3735463 L20.8333755,82.3735463 L20.8333755,67.7924477 L28.2109762,67.7924477 C31.3665871,67.7924477 33.4558191,69.7075771 33.4558191,72.5585083 C33.4558191,74.95242 31.9759464,76.6716839 29.6255604,77.1939919 L34.1957554,82.3735463 Z M24.4242431,74.3648235 L27.8192452,74.3648235 C29.1032524,74.3648235 29.93024,73.6684128 29.93024,72.602034 C29.93024,71.5574179 29.1032524,70.8610073 27.8192452,70.8610073 L24.4242431,70.8610073 L24.4242431,74.3648235 Z M45.3011443,67.4660052 C49.6537111,67.4660052 53.070476,70.8392444 53.070476,75.1047598 C53.070476,79.3485124 49.6537111,82.6999888 45.3011443,82.6999888 C40.9485776,82.6999888 37.5318127,79.3485124 37.5318127,75.1047598 C37.5318127,70.8392444 40.9485776,67.4660052 45.3011443,67.4660052 Z M45.3011443,79.4138009 C47.6732932,79.4138009 49.4796084,77.5857229 49.4796084,75.1047598 C49.4796084,72.602034 47.6732932,70.7521931 45.3011443,70.7521931 C42.9289954,70.7521931 41.1226802,72.602034 41.1226802,75.1047598 C41.1226802,77.5857229 42.9289954,79.4138009 45.3011443,79.4138009 Z M77.5164819,67.7924477 L73.3597806,82.3735463 L69.5077591,82.3735463 L67.0703217,73.3637331 L64.6111215,82.3735463 L60.7808627,82.3735463 L56.6241615,67.7924477 L60.3020804,67.7924477 L62.848332,76.9763635 L65.3510578,67.7924477 L68.7678227,67.7924477 L71.2705486,76.9763635 L73.8168002,67.7924477 L77.5164819,67.7924477 Z M95.4771634,67.7924477 L95.4771634,82.3735463 L92.517418,82.3735463 L85.1398174,73.9295668 L85.1398174,82.3735463 L81.5489498,82.3735463 L81.5489498,67.7924477 L84.530458,67.7924477 L91.9080586,76.4975812 L91.9080586,67.7924477 L95.4771634,67.7924477 Z M115.178872,82.3735463 L111.348613,82.3735463 L110.32576,79.7184806 L104.188641,79.7184806 L103.165787,82.3735463 L99.3137658,82.3735463 L105.407359,67.7924477 L109.085278,67.7924477 L115.178872,82.3735463 Z M109.128804,76.6281582 L107.2572,71.8403348 L105.407359,76.6281582 L109.128804,76.6281582 Z M129.744551,70.9262958 L125.022016,70.9262958 L125.022016,82.3735463 L121.452911,82.3735463 L121.452911,70.9262958 L116.730376,70.9262958 L116.730376,67.7924477 L129.744551,67.7924477 L129.744551,70.9262958 Z M137.672566,82.3735463 L134.081699,82.3735463 L134.081699,67.7924477 L137.672566,67.7924477 L137.672566,82.3735463 Z M150.105488,67.4660052 C154.458055,67.4660052 157.874819,70.8392444 157.874819,75.1047598 C157.874819,79.3485124 154.458055,82.6999888 150.105488,82.6999888 C145.752921,82.6999888 142.336156,79.3485124 142.336156,75.1047598 C142.336156,70.8392444 145.752921,67.4660052 150.105488,67.4660052 Z M150.105488,79.4138009 C152.477637,79.4138009 154.283952,77.5857229 154.283952,75.1047598 C154.283952,72.602034 152.477637,70.7521931 150.105488,70.7521931 C147.733339,70.7521931 145.927024,72.602034 145.927024,75.1047598 C145.927024,77.5857229 147.733339,79.4138009 150.105488,79.4138009 Z M176.466623,67.7924477 L176.466623,82.3735463 L173.506878,82.3735463 L166.129277,73.9295668 L166.129277,82.3735463 L162.53841,82.3735463 L162.53841,67.7924477 L165.519918,67.7924477 L172.897518,76.4975812 L172.897518,67.7924477 L176.466623,67.7924477 Z" id="GROWNATION" fill-rule="nonzero"></path>
            </g>
        </g>
    </g>
</svg>