<?xml version="1.0" encoding="UTF-8"?>
<svg width="28px" height="20px" viewBox="0 0 28 20" version="1.1" xmlns="http://www.w3.org/2000/svg" xmlns:xlink="http://www.w3.org/1999/xlink">
    <!-- Generator: Sketch 55.2 (78181) - https://sketchapp.com -->
    <title>menu</title>
    <desc>Created with Sketch.</desc>
    <defs>
        <path d="M40.4,55.2 C39.6268014,55.2 39,54.5731986 39,53.8 C39,53.0268014 39.6268014,52.4 40.4,52.4 L65.6,52.4 C66.3731986,52.4 67,53.0268014 67,53.8 C67,54.5731986 66.3731986,55.2 65.6,55.2 L40.4,55.2 Z M40.4,46.8 C39.6268014,46.8 39,46.1731986 39,45.4 C39,44.6268014 39.6268014,44 40.4,44 L65.6,44 C66.3731986,44 67,44.6268014 67,45.4 C67,46.1731986 66.3731986,46.8 65.6,46.8 L40.4,46.8 Z M40.4,63.6 C39.6268014,63.6 39,62.9731986 39,62.2 C39,61.4268014 39.6268014,60.8 40.4,60.8 L65.6,60.8 C66.3731986,60.8 67,61.4268014 67,62.2 C67,62.9731986 66.3731986,63.6 65.6,63.6 L40.4,63.6 Z" id="path-1"></path>
    </defs>
    <g id="Grow-Nation-Screens" stroke="none" stroke-width="1" fill="none" fill-rule="evenodd">
        <g id="GrowNation-Landing-Page" transform="translate(-39.000000, -44.000000)">
            <mask id="mask-2" fill="white">
                <use xlink:href="#path-1"></use>
            </mask>
            <use id="menu" fill="#FFFFFF" fill-rule="nonzero" xlink:href="#path-1"></use>
        </g>
    </g>
</svg>