<?xml version="1.0" encoding="UTF-8"?>
<svg width="61px" height="69px" viewBox="0 0 61 69" version="1.1" xmlns="http://www.w3.org/2000/svg" xmlns:xlink="http://www.w3.org/1999/xlink">
    <!-- Generator: Sketch 55.2 (78181) - https://sketchapp.com -->
    <title>icon</title>
    <desc>Created with Sketch.</desc>
    <g id="Grow-Nation-Screens" stroke="none" stroke-width="1" fill="none" fill-rule="evenodd">
        <g id="GrowNation-Landing-Page-" transform="translate(-690.000000, -1597.000000)">
            <g id="icon" transform="translate(690.000000, 1597.000000)">
                <g id="Rye">
                    <rect id="Rectangle-47" fill="#57B367" x="16.2529937" y="11.3640777" width="3.25059873" height="55.1969486" rx="1.62529937"></rect>
                    <rect id="Rectangle-47-Copy" fill="#57B367" x="40.6324842" y="32.4687933" width="3.25059873" height="35.7156726" rx="1.62529937"></rect>
                    <path d="M18.0129937,42.2094313 L18.0129937,48.4221572 C18.0129937,49.4003789 18.8013333,50.1900692 19.7736524,50.1900692 L26.0190747,50.1900692 C30.4291431,50.1900692 33.996586,46.619728 33.996586,42.2094313 L33.996586,35.9967054 C33.996586,35.0184837 33.2082464,34.2287934 32.2359273,34.2287934 L25.990505,34.2287934 C21.5804366,34.2287934 18.0129937,37.7991346 18.0129937,42.2094313 Z" id="Rectangle-48" stroke="#57B367" stroke-width="3.52000013"></path>
                    <path d="M18.0129937,25.9750347 L18.0129937,32.1877605 C18.0129937,33.1659822 18.8013333,33.9556726 19.7736524,33.9556726 L26.0190747,33.9556726 C30.4291431,33.9556726 33.996586,30.3853313 33.996586,25.9750347 L33.996586,19.7623088 C33.996586,18.7840871 33.2082464,17.9943967 32.2359273,17.9943967 L25.990505,17.9943967 C21.5804366,17.9943967 18.0129937,21.564738 18.0129937,25.9750347 Z" id="Rectangle-48-Copy" stroke="#57B367" stroke-width="3.52000013"></path>
                    <path d="M18.0129937,9.74063799 L18.0129937,15.9533639 C18.0129937,16.9315856 18.8013333,17.7212759 19.7736524,17.7212759 L26.0190747,17.7212759 C30.4291431,17.7212759 33.996586,14.1509347 33.996586,9.74063799 L33.996586,3.52791211 C33.996586,2.54969043 33.2082464,1.76000006 32.2359273,1.76000006 L25.990505,1.76000006 C21.5804366,1.76000006 18.0129937,5.33034131 18.0129937,9.74063799 Z" id="Rectangle-48-Copy-2" stroke="#57B367" stroke-width="3.52000013"></path>
                    <path d="M42.3924842,48.70319 L42.3924842,54.9159159 C42.3924842,55.8941375 43.1808238,56.6838279 44.1531429,56.6838279 L50.3985652,56.6838279 C54.8086336,56.6838279 58.3760765,53.1134867 58.3760765,48.70319 L58.3760765,42.4904641 C58.3760765,41.5122424 57.5877369,40.722552 56.6154178,40.722552 L50.3699955,40.722552 C45.9599271,40.722552 42.3924842,44.2928933 42.3924842,48.70319 Z" id="Rectangle-48-Copy-7" stroke="#57B367" stroke-width="3.52000013"></path>
                    <path d="M42.3924842,32.4687933 L42.3924842,38.6815192 C42.3924842,39.6597409 43.1808238,40.4494312 44.1531429,40.4494312 L50.3985652,40.4494312 C54.8086336,40.4494312 58.3760765,36.87909 58.3760765,32.4687933 L58.3760765,26.2560674 C58.3760765,25.2778458 57.5877369,24.4881554 56.6154178,24.4881554 L50.3699955,24.4881554 C45.9599271,24.4881554 42.3924842,28.0584966 42.3924842,32.4687933 Z" id="Rectangle-48-Copy-6" stroke="#57B367" stroke-width="3.52000013"></path>
                    <path d="M1.76000006,16.2343967 L1.76000006,22.4471225 C1.76000006,23.4253442 2.54833962,24.2150346 3.52065876,24.2150346 L9.76608105,24.2150346 C14.1761494,24.2150346 17.7435923,20.6446933 17.7435923,16.2343967 L17.7435923,10.0216708 C17.7435923,9.04344909 16.9552528,8.25375873 15.9829336,8.25375873 L9.73751134,8.25375873 C5.32744298,8.25375873 1.76000006,11.8241 1.76000006,16.2343967 Z" id="Rectangle-48-Copy-3" stroke="#57B367" stroke-width="3.52000013" transform="translate(9.751796, 16.234397) scale(-1, 1) translate(-9.751796, -16.234397) "></path>
                    <path d="M1.76000006,32.4687933 L1.76000006,38.6815192 C1.76000006,39.6597409 2.54833962,40.4494312 3.52065876,40.4494312 L9.76608105,40.4494312 C14.1761494,40.4494312 17.7435923,36.87909 17.7435923,32.4687933 L17.7435923,26.2560674 C17.7435923,25.2778458 16.9552528,24.4881554 15.9829336,24.4881554 L9.73751134,24.4881554 C5.32744298,24.4881554 1.76000006,28.0584966 1.76000006,32.4687933 Z" id="Rectangle-48-Copy-4" stroke="#57B367" stroke-width="3.52000013" transform="translate(9.751796, 32.468793) scale(-1, 1) translate(-9.751796, -32.468793) "></path>
                    <path d="M1.76000006,48.70319 L1.76000006,54.9159159 C1.76000006,55.8941375 2.54833962,56.6838279 3.52065876,56.6838279 L9.76608105,56.6838279 C14.1761494,56.6838279 17.7435923,53.1134867 17.7435923,48.70319 L17.7435923,42.4904641 C17.7435923,41.5122424 16.9552528,40.722552 15.9829336,40.722552 L9.73751134,40.722552 C5.32744298,40.722552 1.76000006,44.2928933 1.76000006,48.70319 Z" id="Rectangle-48-Copy-5" stroke="#57B367" stroke-width="3.52000013" transform="translate(9.751796, 48.703190) scale(-1, 1) translate(-9.751796, -48.703190) "></path>
                </g>
            </g>
        </g>
    </g>
</svg>