<?xml version="1.0" encoding="UTF-8"?>
<svg width="1440px" height="749px" viewBox="0 0 1440 749" version="1.1" xmlns="http://www.w3.org/2000/svg" xmlns:xlink="http://www.w3.org/1999/xlink">
    <!-- Generator: Sketch 55.2 (78181) - https://sketchapp.com -->
    <title>Fill 7</title>
    <desc>Created with Sketch.</desc>
    <g id="Grow-Nation-Screens" stroke="none" stroke-width="1" fill="none" fill-rule="evenodd" opacity="0.529999971">
        <g id="GrowNation-Registration" fill="#F2F4F6">
            <path d="M97.290263,-660.789753 C99.4678378,-663.875009 101.320028,-666.129618 100.469022,-670.104851 C99.6180154,-674.228414 100.519081,-677.313669 103.272336,-679.538613 C108.703758,-684.018167 110.005297,-690.307342 109.554765,-698.16881 C109.054173,-707.365245 109.479676,-707.424576 115.661986,-716.710009 C116.538022,-718.074641 118.440271,-719.706267 118.189975,-720.744574 C116.0124,-731.542968 123.771575,-736.141185 127.225659,-743.409335 C127.876428,-744.773967 127.275718,-746.998911 127.275718,-748.749201 C127.275718,-752.338777 127.425896,-756.01735 127.275718,-759.666258 C127.025422,-763.43383 128.351991,-766.103763 131.005128,-768.655032 C134.534301,-772.00728 137.362645,-776.249507 136.186254,-782.242022 C133.758383,-794.76104 139.940693,-802.088521 146.398329,-809.712662 C148.8262,-812.590257 150.703419,-814.607539 154.082415,-813.331904 C153.982296,-822.23168 152.405432,-831.635776 160.239695,-837.539294 C161.441116,-838.369939 162.267092,-840.060897 162.967921,-841.544193 C164.394608,-844.421787 161.81656,-854.893856 159.488807,-856.110159 C153.406616,-859.284412 146.798802,-856.822141 145.221938,-850.414302 C144.446021,-847.091719 144.921583,-843.353814 144.270813,-839.942233 C143.995488,-838.399605 142.468682,-836.827312 141.217203,-836.233993 C140.491344,-835.907668 138.488977,-837.361298 138.188622,-838.488603 C134.984833,-850.829625 133.382939,-862.725658 143.569985,-871.981425 C147.049098,-875.21501 150.65336,-879.071579 152.805905,-883.580799 C154.808273,-887.852691 154.608036,-893.607879 156.259989,-898.117099 C157.48644,-901.23202 160.289754,-903.367966 162.4423,-906.008233 C160.765317,-908.559502 159.113363,-911.140437 157.336262,-913.632374 C153.10626,-919.743553 153.006142,-926.59638 157.060937,-932.292237 C158.863067,-934.932503 160.840405,-937.454106 162.717625,-940.005375 C158.562712,-945.137579 154.307681,-950.269783 149.827384,-955.81731 C143.720162,-948.727155 137.587911,-941.548003 131.48069,-934.51718 C125.098143,-942.704974 125.824002,-948.786487 129.428263,-953.236375 C138.864421,-964.865415 148.225489,-976.435123 158.08715,-988.479486 C161.015613,-985.216235 163.64372,-980.558685 167.197923,-979.016058 C171.07751,-977.176771 175.833133,-978.244744 180.138223,-978.12608 C185.870001,-977.948085 189.899766,-981.478329 188.548167,-985.186569 C186.921244,-989.072804 184.343195,-990.318773 180.93917,-989.043138 C177.585205,-987.826835 174.932068,-989.013472 173.380233,-992.870042 C172.429108,-995.302647 173.880825,-997.913248 176.759228,-1000.58318 C177.985678,-1001.62149 179.437395,-1002.86746 179.837868,-1004.43975 C181.139407,-1009.42362 182.040473,-1014.70416 178.711536,-1019.18371 C176.709169,-1021.82398 174.506564,-1024.34558 171.903487,-1027.4605 C179.11201,-1036.30095 186.220415,-1045.11172 193.403909,-1053.86317 C207.220245,-1053.21052 212.351313,-1068.34014 221.18676,-1076.82459 C222.037766,-1077.65524 223.864926,-1076.97292 225.341672,-1076.94325 L225.341672,-1078.24855 C225.441791,-1077.8629 225.441791,-1077.32891 225.591968,-1077.21025 C226.042501,-1083.1731 227.093744,-1084.4784 228.069898,-1085.39804 C228.770727,-1086.16935 230.197414,-1087.11866 230.748065,-1086.76267 C234.102031,-1084.74539 234.352327,-1082.52045 232.575226,-1079.90985 C230.622917,-1077.15092 228.470372,-1075.75662 225.591968,-1077.15092 L225.591968,-1077.21025 C225.591968,-1077.15092 225.541909,-1077.06192 225.541909,-1076.94325 L225.341672,-1076.94325 C225.241554,-1071.78138 226.693271,-1069.73444 228.57049,-1067.42049 C237.23073,-1056.7111 236.880316,-1055.49479 227.619366,-1041.07716 C225.792205,-1038.2589 225.992442,-1034.78798 229.847,-1033.63101 C233.701557,-1032.44438 238.632388,-1030.87208 241.786117,-1036.5976 C245.590615,-1043.36143 250.84683,-1045.08206 257.229377,-1044.01408 C260.057721,-1043.5691 263.086302,-1044.01408 265.71441,-1044.01408 C272.372282,-1052.08321 279.956249,-1058.81738 284.561695,-1067.86548 C290.794064,-1079.76152 304.985845,-1073.65034 309.666379,-1087 C310.692592,-1086.28802 311.944072,-1085.84303 312.745019,-1084.89372 C315.323068,-1081.7788 315.748571,-1075.1633 313.721173,-1070.09043 C312.194368,-1066.23386 309.516201,-1065.01755 306.237324,-1065.8482 C304.785608,-1066.23386 302.507915,-1066.79751 301.857145,-1065.8482 C296.325605,-1058.07573 287.164773,-1053.77417 287.665365,-1040.18718 C287.890631,-1034.96598 282.859682,-1032.62237 277.903823,-1032.83003 C272.922933,-1033.00803 269.593997,-1029.32945 270.319855,-1022.86228 C271.095773,-1016.18745 267.191156,-1013.25053 264.337782,-1009.33463 C261.559497,-1005.47806 260.783579,-1000.87984 261.709674,-996.726611 C259.50707,-993.285364 257.279436,-989.814452 255.051802,-986.343539 C252.673991,-982.6353 250.421327,-978.719399 247.74316,-975.129822 C247.067361,-974.210179 245.165112,-974.269511 243.813514,-974.002518 C236.504872,-972.756549 236.855286,-960.474859 228.545461,-960.474859 C225.892324,-960.474859 224.365518,-957.537933 222.663506,-954.660339 C209.723205,-932.292237 196.707815,-910.10213 183.44213,-887.941689 C179.612602,-881.444853 175.257452,-875.363339 178.160885,-867.116214 C170.902303,-859.462407 172.103723,-850.65163 174.406446,-841.692522 C175.057216,-839.230251 175.457689,-836.856978 175.632896,-834.394706 C169.901119,-827.423216 164.194371,-820.422059 158.437564,-813.480234 C157.661647,-812.590257 155.58419,-813.331904 154.082415,-813.331904 L154.082415,-786.246921 C151.078863,-782.360686 148.150401,-778.444785 145.12182,-774.528883 C145.12182,-760.348575 145.07176,-746.286929 145.271997,-732.076954 C143.169511,-730.474995 139.440101,-730.712322 138.188622,-728.754372 C130.905009,-717.214329 123.971812,-705.466626 117.414058,-693.451929 C116.262696,-691.226985 117.313939,-687.785739 117.063643,-684.878479 C116.312755,-677.402667 116.262696,-677.402667 106.15074,-674.614071 C101.545294,-666.752603 96.8897895,-658.861468 92.2843439,-651 C91.3582489,-652.275634 92.6097287,-654.530244 97.290263,-660.789753 L97.290263,-660.789753 Z M110.25375,-872.748102 C109.07775,-874.981102 110.08575,-877.591102 113.10975,-879.679102 C113.44575,-879.911102 114.90975,-877.446102 115.86975,-876.286102 C116.80575,-873.908102 115.91775,-871.356102 112.86975,-869.326102 C112.60575,-869.065102 110.90175,-871.356102 110.25375,-872.748102 L110.25375,-872.748102 Z M344.459006,-1114.09333 C343.187006,-1116.55833 344.075006,-1118.87833 347.051006,-1121.45933 C348.107006,-1122.41633 349.043006,-1123.77933 349.931006,-1125.02633 C351.827006,-1127.52033 353.603006,-1130.04333 355.403006,-1132.47933 C359.459006,-1128.85433 360.443006,-1124.15633 360.011006,-1118.87833 C359.507006,-1113.65833 356.363006,-1111.10633 351.587006,-1110.61333 C348.395006,-1110.26533 346.163006,-1110.78733 344.459006,-1114.09333 L344.459006,-1114.09333 Z M1111.14263,-1082.38911 C1111.28663,-1082.04111 1109.48663,-1079.89511 1108.38263,-1078.99611 C1106.55863,-1077.57511 1104.47063,-1078.85111 1102.86263,-1082.62111 C1102.67063,-1083.02711 1104.59063,-1084.91211 1105.57463,-1086.13011 C1107.44663,-1087.29011 1109.46263,-1086.18811 1111.14263,-1082.38911 L1111.14263,-1082.38911 Z M1308.7701,-498.268311 C1308.71948,-494.620232 1308.71948,-491.031472 1308.7701,-487.324074 C1308.92196,-477.506887 1309.0232,-477.239954 1319.04589,-474.837561 C1321.95652,-474.096081 1326.10733,-473.265624 1326.0314,-469.765841 C1325.87955,-459.622402 1329.90381,-453.008406 1335.85162,-447.402821 L1335.85162,-408.875549 C1335.14294,-409.706006 1333.7509,-409.765325 1331.85266,-408.638276 C1330.08098,-407.540886 1328.89141,-404.54531 1327.80309,-402.172575 C1327.60061,-401.787006 1330.08098,-398.821088 1330.41,-398.969384 C1332.38417,-400.333706 1334.73799,-401.787006 1335.67445,-404.011444 C1336.5856,-406.295201 1336.5856,-407.956115 1335.90224,-408.816231 C1337.3449,-408.84589 1339.44561,-409.557711 1340.25553,-408.667935 C1344.65944,-403.774171 1348.81025,-398.465178 1353.89752,-392.207092 C1353.89752,-344.396497 1353.79629,-295.429195 1353.92283,-246.461893 C1353.97345,-235.606634 1355.18833,-224.514101 1345.79838,-217.72215 C1345.49466,-212.472475 1345.11501,-207.163482 1344.88723,-201.884149 C1344.43165,-191.859347 1342.38155,-189.486612 1334.66206,-189.101043 C1327.0438,-188.715474 1319.88112,-189.012066 1315.09756,-197.820841 C1314.41419,-199.066527 1312.66782,-200.074939 1311.45294,-200.074939 C1308.61824,-199.985961 1304.99894,-200.371531 1303.17663,-198.443684 C1302.24017,-197.613227 1301.50618,-196.515837 1300.64565,-195.537085 C1300.64565,-201.350283 1300.64565,-207.193141 1300.59503,-213.00634 C1300.59503,-216.179872 1301.73397,-218.493288 1304.26495,-220.539771 C1311.0733,-226.026719 1307.7324,-238.127664 1316.10995,-242.784155 C1316.36305,-242.932451 1316.10995,-245.067911 1315.52783,-245.83905 C1313.22463,-249.338833 1308.46638,-251.355657 1309.04851,-256.694309 C1309.93435,-264.168422 1304.11309,-266.778429 1300.92405,-271.316284 C1303.27787,-276.358344 1310.08621,-278.256531 1309.0232,-285.789962 C1308.01081,-293.08612 1315.90747,-294.658056 1317.22358,-300.322959 C1317.85633,-303.081263 1317.32482,-306.373432 1316.4896,-309.102076 C1315.37597,-312.423904 1312.66782,-313.402657 1309.68126,-312.957769 C1308.2639,-312.750155 1306.36567,-312.245949 1305.58106,-313.076406 C1300.39255,-318.059147 1295.48244,-323.36814 1290.52172,-328.617815 C1286.54807,-332.710781 1281.73921,-332.295553 1276.14573,-327.461107 C1274.34874,-325.859511 1272.04554,-323.190185 1270.29916,-323.516436 C1267.28729,-324.168938 1266.93296,-327.520425 1267.00889,-330.96089 C1267.28729,-344.693089 1267.13543,-358.484607 1267.13543,-372.276124 C1272.85546,-378.830803 1278.49955,-385.355822 1284.24488,-392.029137 L1284.24488,-428.154015 C1289.58525,-433.996873 1294.47005,-439.394843 1299.55732,-444.941109 C1296.16581,-452.207608 1290.92667,-458.109784 1291.86314,-468.045609 C1292.87553,-478.604276 1292.72367,-489.311239 1292.44526,-500.077521 C1293.33111,-499.00979 1294.31819,-498.031037 1295.07748,-496.755693 C1297.20351,-499.247064 1299.27892,-501.768094 1301.48087,-504.200146 C1302.46795,-505.297536 1303.96123,-507.31436 1304.56867,-506.95845 C1307.58054,-505.178899 1308.82072,-501.975708 1308.7701,-498.268311 L1308.7701,-498.268311 Z M1281.874,-128.499 C1279.522,-125.541 1277.746,-123.453 1276.09,-121.133 C1275.994,-124.874 1276.042,-128.615 1276.042,-132.733 C1277.914,-134.995 1279.93,-137.431 1281.97,-139.867 C1281.85,-135.923 1281.874,-131.863 1281.874,-128.499 L1281.874,-128.499 Z M1529.99241,-51.6962826 C1522.82929,-37.1795413 1522.62316,-37.2997627 1522.5201,-27.7121012 C1522.23666,-7.66517269 1522.23666,-7.66517269 1510.53863,5.1985236 C1509.8687,5.91985236 1508.14233,6.28051674 1507.42087,5.73952017 C1506.10677,4.98813604 1504.25158,3.24492486 1504.25158,1.98259953 C1504.40618,-3.24703401 1502.49945,-8.92749802 1507.2405,-13.2254152 C1510.71899,-16.3812286 1514.17172,-20.1080939 1513.42449,-26.8104403 C1512.80609,-32.220406 1513.21835,-37.9309254 1513.32142,-43.4611126 C1513.42449,-47.0978118 1513.65639,-50.7044556 1513.81098,-54.281044 C1518.19131,-59.5407329 1522.5201,-64.7703665 1526.79735,-70 C1532.64637,-65.1310308 1533.34207,-58.5789612 1529.99241,-51.6962826 L1529.99241,-51.6962826 Z M1636.952,-33.8841575 C1636.448,-31.5351575 1634.384,-29.5051575 1631.048,-26.8951575 C1631.24,-28.7801575 1631.456,-30.6941575 1631.696,-32.4921575 C1631.936,-34.0001575 1633.496,-35.7981575 1634.624,-36.0881575 C1635.272,-36.2621575 1636.304,-35.0441575 1636.952,-33.8841575 L1636.952,-33.8841575 Z M1505.52693,47.3265 C1505.31093,47.9645 1504.73493,48.3125 1504.30293,48.8925 C1504.78293,47.2975 1505.16693,45.6445 1505.57493,44.1075 C1505.67093,45.2385 1505.81493,46.3985 1505.52693,47.3265 L1505.52693,47.3265 Z M1548.60285,55.2463658 C1549.91327,56.093134 1551.22368,57.4654825 1551.67729,58.9254277 C1552.25689,60.4729696 1551.87889,62.4584951 1551.87889,64.2688272 L1551.87889,82.4597446 C1546.18363,88.2411276 1539.53075,94.9860745 1533.70949,100.97185 L1533.70949,123.89299 C1526.25021,132.886252 1519.01773,141.587526 1511.68444,150.317998 C1510.14723,152.186728 1500.84833,149.850816 1499.66391,147.690097 C1498.2023,144.974599 1499.21031,142.959874 1502.13354,140.010785 C1504.17476,137.908464 1505.96398,134.81338 1506.71999,131.718296 C1507.4508,128.477218 1506.71999,124.739758 1506.89639,121.177492 C1507.14839,117.907214 1506.89639,113.76097 1508.43361,111.425058 C1512.01205,105.906465 1516.9009,101.643425 1520.63054,96.2124285 C1525.06579,89.642675 1533.63389,86.2264032 1533.63389,76.2987757 C1533.63389,65.4951812 1541.49637,62.3708984 1545.60402,55.6843493 C1546.05762,54.9543767 1547.92244,54.8083822 1548.60285,55.2463658 L1548.60285,55.2463658 Z M1478.79447,155.934911 C1472.27797,165.63779 1464.7259,174.364465 1457.04755,182.676993 C1455.30476,184.481492 1451.31404,184.126509 1448.5862,183.446124 C1445.37847,182.588247 1443.10527,178.180537 1444.3429,177.115587 C1450.60682,171.583762 1450.96043,162.886669 1453.66301,155.343272 C1453.91559,158.094393 1455.98672,162.383776 1457.57796,162.650014 C1461.01301,163.152907 1463.38724,160.046802 1463.96817,156.319476 C1464.42281,153.006298 1464.7259,149.604374 1464.57435,146.143286 C1464.47332,144.575443 1463.33673,142.56387 1462.14961,141.469338 C1461.64446,140.996027 1461.21507,140.848117 1460.78569,140.493134 C1461.08879,139.36902 1461.34136,138.274488 1461.46765,136.884136 C1461.82126,128.689936 1472.45477,125.11052 1470.13106,114.490601 C1472.8589,110.497038 1476.06663,106.799294 1478.18828,102.33242 C1480.30993,98.0134551 1477.60735,91.653336 1481.39601,87.8668466 C1486.22024,83.0745708 1488.77128,77.6610742 1488.41767,69.5852021 C1488.29138,66.5974252 1490.46354,65.1479097 1492.43365,65 C1492.5852,65.2070736 1492.78726,65.562057 1492.9388,65.7691307 C1493.69654,66.5974252 1494.90891,66.8044989 1496.04551,66.8636628 C1496.39912,67.3961379 1496.8285,67.9581949 1496.8285,68.4315061 C1497.08107,79.1401716 1496.98004,89.908001 1496.98004,101.149142 C1492.73674,107.272605 1486.04344,112.331118 1488.06406,123.069366 C1489.50375,130.524017 1487.65993,137.150374 1482.179,141.587666 C1477.35477,145.403737 1481.09292,152.651315 1478.79447,155.934911 L1478.79447,155.934911 Z M1442.91389,202.936689 C1441.01579,205.687192 1438.86795,207.136382 1435.99583,205.687192 C1435.99583,205.687192 1435.99583,205.657616 1435.94588,205.657616 C1435.89593,212.844415 1435.89593,217.517313 1435.89593,222.308512 C1417.73915,244.549139 1399.70725,267.499574 1380.97604,289.414873 C1375.35668,295.951015 1373.93311,303.433567 1372.03502,311.59635 C1371.06099,315.559441 1368.08898,316.594576 1364.71736,315.411564 C1361.39569,314.169402 1359.3977,315.884769 1357.17493,318.842299 C1354.45266,322.450486 1352.27984,328.040218 1346.81033,326.324851 C1345.66148,335.049565 1344.98716,335.848098 1337.89428,337.326864 C1336.72046,346.022002 1336.09608,346.79096 1329.02817,348.24015 C1329.75245,349.068259 1329.75245,350.724476 1328.82838,353.031349 C1327.92928,355.249497 1325.55666,356.698687 1323.63359,358 C1324.23299,356.107181 1324.73249,355.10162 1325.20701,353.563705 C1322.21002,356.787413 1320.86137,355.160771 1321.01122,354.835443 C1322.06017,352.439843 1323.28394,349.482313 1325.05716,348.417602 C1326.00621,347.826096 1326.48073,348.269725 1327.15505,348.299301 C1330.67652,339.42671 1332.39979,338.361999 1337.89428,337.326864 C1339.0681,328.542999 1339.69247,327.744465 1346.81033,326.324851 L1346.81033,308.727546 C1352.00512,302.989937 1357.84925,296.631247 1363.31876,290.745762 C1370.3617,286.782671 1378.15388,284.150469 1378.7283,272.823129 C1383.09891,270.397954 1387.76923,268.445984 1391.61537,265.281426 C1395.61136,262.057718 1395.11186,254.575167 1392.11487,249.695242 C1399.8571,247.151766 1404.42751,238.604504 1410.09682,232.038786 C1417.41448,223.550675 1424.40746,214.530207 1431.70014,206.01252 C1432.42442,205.154836 1434.49733,205.953369 1435.89593,205.953369 C1435.89593,205.746342 1435.94588,205.687192 1435.94588,205.50974 C1435.54628,205.095686 1435.62121,202.433908 1435.99583,201.043869 C1435.99583,202.670511 1435.99583,204.0014 1435.94588,205.391439 C1436.47035,199.683405 1437.44438,198.382092 1438.39343,197.435682 C1439.16765,196.6963 1440.51629,195.720315 1441.11569,196.075218 C1444.46233,198.115914 1444.66213,200.334062 1442.91389,202.936689 L1442.91389,202.936689 Z M1308.1348,374.375419 C1306.4788,378.116419 1304.3428,379.392419 1302.5428,378.029419 C1301.4868,377.130419 1299.6388,375.013419 1299.8788,374.607419 C1301.4868,370.808419 1303.4548,369.735419 1305.3988,370.866419 C1306.3588,372.142419 1308.2788,373.969419 1308.1348,374.375419 L1308.1348,374.375419 Z M1040.97667,391.37494 C1044.20932,390.21494 1046.73482,391.37494 1048.47742,394.70994 C1049.76543,397.14594 1048.6037,399.32094 1045.74987,402.16294 C1042.3657,405.41094 1039.6129,409.58694 1036.22872,412.68994 C1032.03638,416.69194 1023.80324,411.32694 1023.12135,404.51194 C1022.33844,395.86994 1025.34379,391.37494 1032.1374,391.37494 L1040.97667,391.37494 Z M1213.9089,415.801846 C1212.1089,418.672846 1209.9969,421.282846 1206.5649,422.413846 C1201.6929,424.037846 1197.0369,426.502846 1192.5009,429.228846 C1192.3809,427.430846 1192.1649,425.603846 1192.0929,423.776846 C1191.9969,418.962846 1195.7649,415.685846 1200.6849,415.772846 C1205.1489,415.801846 1209.4689,415.801846 1213.9089,415.801846 L1213.9089,415.801846 Z M1234.636,435.3435 C1232.668,433.4295 1230.652,431.5445 1228.78,429.6305 C1228.66,429.5725 1228.564,429.5725 1228.492,429.4565 C1229.524,428.4705 1230.316,427.3975 1231.66,426.7885 C1234.204,425.6865 1236.892,424.7295 1239.508,423.6565 C1238.668,429.5725 1236.748,432.6175 1234.636,435.3435 L1234.636,435.3435 Z M899.313102,483.04008 C900.116815,482.271354 901.447965,481.295664 902.075866,481.680027 C905.466531,483.720106 905.692575,485.878452 903.859105,488.509859 C901.975402,491.229966 899.815423,492.649152 896.876847,491.259532 C896.424758,491.052567 896.47499,488.125496 896.927079,486.617611 C894.968028,488.450726 893.335485,489.929045 891.577363,491.614328 C891.853639,491.496063 892.079684,491.673461 892.406192,491.555196 C893.762458,491.052567 895.947553,490.78647 896.675918,491.673461 C897.429399,492.619585 897.454515,495.753621 896.751266,496.81801 C889.417384,507.787135 881.179324,516.864012 868.169217,513.37518 C855.711663,525.379128 851.467053,530.25758 847.322907,535.076899 C841.872727,524.078207 833.257926,523.546013 824.140805,524.285172 C818.640393,524.728668 816.806923,525.911323 816.430182,534.160341 C816.12879,540.428412 814.471131,545.720794 810.000477,545.868625 C798.19594,546.371254 786.416519,545.306864 774.637098,544.77467 C761.576759,525.911323 744.070881,538.624864 728.724983,535.609093 C720.185531,533.894244 711.043294,536.850881 704.965213,525.793057 C703.885223,523.900809 699.464801,523.959942 696.752269,524.433004 C688.489093,525.911323 682.48636,521.860729 677.789661,513.552578 C674.449229,517.218809 671.33484,520.678074 668.145103,524.255606 C663.448405,517.337074 658.349849,511.630764 649.684817,513.197782 C643.908128,514.143906 637.905396,513.227348 631.978011,512.695153 C630.898022,512.576888 629.190131,510.388976 629.039435,508.96979 C628.68781,506.131418 630.722209,502.642586 633.76125,502.583453 C677.011064,502.317356 720.235763,502.406055 763.435345,502.435621 C768.584133,502.435621 770.065979,504.357436 771.397129,512.369923 C773.105019,523.043384 775.038954,525.20173 782.071444,524.314738 C786.893723,523.664278 789.204399,521.003305 789.129051,513.552578 C789.078819,509.442852 789.204399,505.894887 792.343903,504.23917 C801.260096,499.626816 813.391142,506.988843 819.996659,492.885682 C820.825488,491.052567 825.396607,491.584762 828.284951,491.555196 C836.372315,491.43693 844.434563,491.259532 852.421462,491.496063 C852.019606,492.796983 851.617749,494.186603 851.919141,494.4527 C854.707022,497.172807 857.520018,496.729311 860.458594,494.86663 C861.94044,493.831806 862.543225,492.649152 862.342297,491.170833 C867.491084,490.017744 870.278964,484.961894 874.096602,481 C878.893765,485.789753 883.063027,492.353488 890.045285,491.673461 C898.132648,484.341 898.735433,483.631407 899.313102,483.04008 L899.313102,483.04008 Z M1053.04,492.362469 C1055.32,493.754469 1057.36,495.813469 1059.592,497.582469 C1057.36,499.409469 1055.32,501.439469 1053.04,502.860469 C1051.864,503.527469 1050.304,502.947469 1048.912,502.947469 C1046.728,501.178469 1044.616,499.409469 1042.408,497.582469 C1044.616,495.813469 1046.632,493.754469 1048.96,492.362469 C1050.064,491.637469 1051.864,491.637469 1053.04,492.362469 L1053.04,492.362469 Z M1008.34362,513.664281 C1011.18645,516.367978 1012.6328,518.755286 1011.73507,521.113831 C1010.23884,524.852987 1007.67032,525.399479 1004.25393,524.910512 C999.889938,524.335258 995.052138,523.41485 991.211822,525.19814 C987.446318,526.952667 984.827921,531.899858 981.660908,535.437676 L950.838636,535.437676 C954.728825,535.38015 954.853511,535.466438 950.813699,540.471155 C948.968352,542.657123 946.674138,545.619686 944.454735,545.821025 C938.993507,546.309992 933.382656,545.705974 927.846617,545.101956 C926.799258,544.92938 924.904038,541.99558 925.003786,541.765479 C926.400265,539.493222 927.921428,536.127981 929.791712,535.725303 C933.881399,534.833658 938.220456,535.437676 942.384954,535.437676 C950.838636,533.654386 950.464579,531.727282 950.963321,530.202857 C951.462064,528.76472 952.733856,526.923904 953.930838,526.578751 C960.863355,524.709173 967.795873,523.41485 972.159868,515.505096 C972.733421,514.469638 974.628642,514.297061 975.950309,514.153247 C978.942763,514.009434 981.885342,513.693044 984.827921,514.268298 C991.810313,515.447571 994.902515,508.975954 999.341321,504 C1002.30884,507.25019 1005.20154,510.644193 1008.34362,513.664281 L1008.34362,513.664281 Z M896.931835,556.244816 C891.987835,556.273816 888.963835,553.344816 888.435835,547.979816 C887.619835,539.279816 890.523835,534.784816 897.099835,534.755816 C902.067835,534.697816 905.067835,537.626816 905.571835,543.020816 C906.363835,551.691816 903.435835,556.186816 896.931835,556.244816 L896.931835,556.244816 Z M588.471811,493.917533 C589.407811,495.048533 591.351811,496.933533 591.135811,497.339533 C589.503811,501.167533 587.415811,502.443533 585.615811,500.964533 C584.487811,500.094533 582.711811,497.977533 582.855811,497.571533 C584.535811,493.830533 586.575811,492.670533 588.471811,493.917533 L588.471811,493.917533 Z M572.355148,493.981954 C573.387148,494.851954 574.203148,496.330954 575.211148,497.490954 C573.291148,501.057954 571.299148,502.478954 569.451148,500.999954 C568.323148,500.129954 566.571148,498.012954 566.811148,497.606954 C568.419148,493.865954 570.507148,492.560954 572.355148,493.981954 L572.355148,493.981954 Z M518.573787,494.984205 C517.269887,492.887373 513.358188,492.532979 510.675163,492.532979 C485.499866,492.355782 460.274418,492.060453 435.048971,492.621577 C428.278721,492.739709 424.116272,489.254833 420.104272,483.702659 C419.301872,482.550878 417.722148,481.576294 416.518548,481.546761 C407.817524,481.340032 398.614999,483.702659 392.7976,472.302982 C392.271025,471.151201 390.13965,470.265216 389.061425,470.678676 C374.818827,475.669726 367.396628,463.324998 359.472929,452.95897 C357.140954,449.976153 355.134954,448.79484 351.975504,448.469978 C341.945505,447.76119 337.632606,438.281148 333.470156,429.066901 C332.843281,427.737923 332.843281,425.168566 333.470156,423.75099 C334.824206,420.73864 336.378856,417.785356 338.334706,415.363663 C341.895355,410.963269 345.506155,406.592408 349.04173,402.192015 C350.596379,403.49146 352.125954,404.820438 353.755829,405.735956 C360.952353,409.663824 367.396628,415.068334 373.740602,419.586859 C378.555002,418.316947 382.592076,417.224232 386.654226,416.249648 C387.907976,415.924787 389.9892,415.245531 390.4907,415.865721 C396.25795,423.514727 405.686149,418.730407 412.381173,423.189866 C418.098272,427.088201 423.614772,430.573076 424.467322,439.34433 C424.768222,442.061352 428.755146,442.77014 431.362946,441.913687 C439.537395,439.226199 447.235419,437.217966 454.131044,444.660242 C456.989593,447.76119 460.851143,449.680825 464.186118,452.072985 C471.056667,450.271482 477.851991,448.469978 484.572091,446.757074 C484.271191,445.250899 484.496866,443.095001 483.719541,442.533877 C472.862067,434.56001 461.904293,426.615675 450.770994,419.261998 C449.015744,418.13975 445.63062,420.236581 443.198345,420.029852 C439.11112,419.557326 436.804221,417.047035 435.876446,412.085517 C434.672846,406.031284 432.315796,404.672774 428.053046,405.381562 C422.912672,406.178949 418.048122,409.457094 412.656998,407.773722 C409.647998,406.887737 408.394248,404.613708 408.745298,401.069767 C404.006124,403.727723 401.172649,399.652191 398.1135,397.348629 C395.7063,395.547126 393.675225,395.635724 390.6913,396.196848 C384.221951,397.496293 380.937126,394.365812 380.987276,387.189331 C380.987276,384.738105 382.943126,382.198281 383.921051,379.687989 C385.049426,380.485376 386.102576,381.312296 387.281101,382.021084 C389.362325,383.350062 391.594,384.501843 393.85075,385.919419 C396.65915,378.595274 401.498624,374.342545 408.394248,372.157115 C408.494548,372.127582 408.444398,372.038983 408.494548,372.038983 C408.945898,372.038983 409.296948,372.334312 409.773373,372.245713 C412.556698,371.773188 415.615848,372.127582 418.399172,372.127582 C421.734147,376.144048 424.818372,380.071916 428.053046,383.85212 C432.591621,389.433827 432.491321,389.079433 443.82522,385.0925 C447.034819,383.911186 448.739919,387.602791 450.520244,390.172148 C447.385869,390.969535 444.27657,391.766922 441.11712,392.593841 C440.76607,396.167315 442.145195,398.618541 445.27957,399.415928 C450.144119,400.656307 455.334644,397.703023 460.224268,401.837621 C467.621392,408.157649 475.795842,413.237298 483.869991,418.671341 C484.647316,419.232465 486.42764,418.13975 487.756615,417.814888 C489.110665,417.430961 490.64024,416.544976 491.718465,416.89937 C496.608089,418.376012 499.466639,425.168566 506.061363,422.451545 C512.480563,419.734523 515.765387,426.113617 520.128437,428.860171 C529.330961,434.76674 538.25766,441.441162 547.936609,448.263249 C550.067984,445.044169 551.773084,440.023586 554.656708,438.871805 C561.452033,436.213849 566.542257,432.256448 569.325582,424.548376 C572.861157,426.881471 576.045681,430.395879 579.556181,430.868405 C580.534106,431.045602 581.537106,430.632142 582.565181,430.454945 C584.746705,433.053835 586.92823,435.564126 589.109755,438.133484 C592.921154,438.133484 596.757629,438.133484 600.594104,438.133484 C609.044378,444.158183 617.594952,450.123818 626.245826,456.17805 C629.279901,456.17805 632.564725,454.140284 636,455.705525 C635.573725,456.266649 635.14745,456.443846 634.821475,457.064035 C633.74325,459.131334 629.681101,459.131334 626.947926,459.456196 C624.039226,459.899188 621.005152,459.426663 618.071377,459.633393 C616.717327,459.81059 614.686252,460.01732 614.209827,461.080502 C608.467653,472.39158 599.340354,470.265216 590.58918,470.767274 C588.207055,470.914938 585.900155,474.340748 583.66848,476.348981 C575.193131,483.938922 573.212206,484.263783 565.413882,474.990471 C562.429958,471.387464 561.126058,469.969887 558.994683,473.63196 C555.283583,480.129185 550.368884,482.787141 543.82431,481.664893 C542.97176,481.487696 541.392035,483.702659 540.71501,485.179301 C539.56156,487.689593 540.76516,490.849607 544.175359,492.208117 C546.883459,493.2713 550.042909,492.296716 552.876384,492.946438 C554.054908,493.241767 555.609558,495.161402 555.910458,496.667577 C556.437033,499.384598 554.506258,503.371532 551.522334,503.04667 C540.389035,501.806291 527.751236,509.514363 518.573787,494.984205 L518.573787,494.984205 Z M161.176,-714.47412 C161.92,-712.941697 162.376,-711.177966 162.976,-709.472062 C162.88,-709.414235 162.784,-709.414235 162.736,-709.29858 C159.544,-703.949559 153.904,-701.202764 154.072,-692.441935 C154.12,-687.208568 146.608,-676.770749 141.784,-672.607186 C141.136,-672 140.08,-672 139.024,-672 C141.736,-676.62618 144.304,-681.339102 147.112,-685.878541 C150.784,-691.632353 149.44,-696.807893 148.408,-702.359309 C148.192,-703.776077 147.544,-705.337413 147.832,-706.66744 C148.384,-709.327494 149.056,-712.276684 150.496,-714.445206 C151.888,-716.613728 160.216,-716.411333 161.176,-714.47412 L161.176,-714.47412 Z M168.078744,-729.485636 C167.53522,-732.427468 167.041107,-735.399015 166.546994,-738.340846 C166.028176,-737.479098 164.817599,-737.152227 162.989382,-737.568244 C161.902334,-737.895114 160.914109,-738.90544 160,-740.064343 C160.247056,-740.450645 160.39529,-740.955808 160.617641,-741.40154 C161.012931,-741.342109 161.556455,-741.252962 161.976451,-741.1341 C161.53175,-741.550117 161.259988,-741.906703 160.96352,-742.263288 C161.309399,-743.006175 161.729395,-743.749062 161.976451,-744.521664 C163.434084,-744.046216 164.916422,-743.451907 165.707002,-742.293004 C166.324643,-741.431255 166.052881,-740.955808 166.17641,-740.302067 C170.598719,-739.588896 172.649287,-739.975197 174.403387,-740.48036 C179.245692,-741.817556 181.815079,-745.115973 181.345672,-749.484147 C180.728031,-753.971183 179.640983,-758.309642 179.097459,-762.826393 C179.072753,-763.24241 179.344515,-763.420702 179.344515,-763.747573 C180.209212,-759.914277 179.93745,-755.456957 181.493905,-752.009962 C183.124478,-748.236098 185.595041,-746.928617 188.905597,-748.206382 L188.905597,-772.602783 C191.845568,-773.434816 194.884361,-774.266849 197.799627,-774.98002 C200.196074,-775.455468 204.890145,-767.313429 203.852508,-764.639037 C202.468992,-761.370335 200.690187,-758.309642 199.183143,-755.130087 C197.206691,-752.81228 195.329063,-750.405327 193.229084,-748.325244 C192.290269,-747.43378 190.36323,-748.206382 188.905597,-748.206382 L188.905597,-736.617349 C185.916215,-732.011451 183.075066,-727.346122 179.640983,-723.09681 C177.812765,-720.86815 169.783433,-722.294493 168.89403,-725.058031 C168.350506,-726.454658 168.301095,-728.029578 168.078744,-729.485636 L168.078744,-729.485636 Z M346.836,-1053.94323 C347.988,-1053.65323 348.564,-1052.66723 349.116,-1051.79723 C346.092,-1047.12823 345.228,-1046.86723 341.724,-1045.93923 C337.404,-1044.80823 333.108,-1043.59023 328.884,-1042.45923 C330.948,-1045.15623 333.108,-1047.79523 335.196,-1050.49223 C338.988,-1055.39323 343.02,-1054.84223 346.836,-1053.94323 L346.836,-1053.94323 Z M280,-842.987799 C277.379775,-836.112318 269.791011,-833.989886 271.002247,-824.752826 C271.224719,-822.989116 271.447191,-820.418284 270.755056,-819.401908 C262.548315,-808.849539 254.020225,-798.685784 246.035955,-787.864374 C245.91236,-787.65512 245.986517,-787.176825 245.862921,-786.877891 C242.32809,-785.323435 238.74382,-785.682156 236,-789.179683 C239.040449,-794.411028 241.586517,-800.210347 245.269663,-804.754143 C247.716854,-807.833163 253.229213,-805.979773 255.379775,-811.001863 C257.604494,-816.442462 253.87191,-822.630395 258.222472,-828.160674 C261.930337,-832.79415 264.426966,-838.563576 267.442697,-843.824814 C270.507865,-849.086052 273.226966,-854.646224 276.761798,-859.518848 C277.478652,-860.565117 278.714607,-861.402132 280,-862 L280,-842.987799 Z M220.327741,-761.316404 C216.391741,-760.794404 213.703741,-763.317404 212.863741,-768.392404 C212.071741,-773.612404 213.559741,-777.295404 217.111741,-778.861404 C220.327741,-780.224404 223.087741,-779.905404 225.295741,-778.687404 C225.295741,-777.498404 225.343741,-776.367404 225.343741,-775.410404 C225.199741,-773.612404 225.295741,-771.756404 225.295741,-769.987404 L225.295741,-764.622404 C224.863741,-764.042404 224.407741,-763.462404 223.975741,-762.911404 C222.823741,-762.302404 221.719741,-761.490404 220.327741,-761.316404 L220.327741,-761.316404 Z M1276.40281,-464.884966 C1277.05081,-466.102966 1278.13081,-466.914966 1278.99481,-467.900966 C1281.68281,-465.928966 1282.69081,-463.898966 1281.61081,-461.984966 C1280.93881,-460.824966 1279.37881,-458.910966 1279.04281,-459.113966 C1276.30681,-460.882966 1275.29881,-463.086966 1276.40281,-464.884966 L1276.40281,-464.884966 Z M787.065949,-243.320107 C784.065949,-245.408107 783.153949,-247.931107 784.137949,-250.338107 C785.049949,-251.498107 786.489949,-253.934107 786.825949,-253.673107 C789.873949,-251.643107 790.905949,-249.004107 789.825949,-246.771107 C789.081949,-245.408107 787.377949,-243.117107 787.065949,-243.320107 L787.065949,-243.320107 Z M1056.408,199.895 C1054.728,201.229 1052.472,200.852 1050.264,201.026 C1052.016,196.096 1055.52,192.413 1058.568,188.266 C1060.344,185.859 1062.144,184.177 1064.28,183.974 C1065.576,184.786 1066.824,185.743 1067.736,187.512 C1064.016,191.659 1060.68,196.531 1056.408,199.895 L1056.408,199.895 Z M1084.568,172.241578 C1087.976,173.053578 1090.016,171.139578 1091.864,168.819578 C1092.296,170.037578 1092.896,171.168578 1092.896,172.908578 C1092.848,178.186578 1090.712,181.463578 1086.944,182.043578 C1082,182.797578 1078.496,180.361578 1077.104,176.562578 C1079.12,173.894578 1081.256,171.516578 1084.568,172.241578 L1084.568,172.241578 Z M1109.84766,167.54525 C1112.87166,171.37325 1115.89566,175.17225 1119.37566,179.58025 C1118.22366,181.00125 1117.16766,182.50925 1116.03966,184.07525 C1112.36766,184.10425 1108.67166,184.19125 1105.04766,184.01725 C1102.64766,183.93025 1099.55166,174.91125 1100.99166,172.64925 C1102.81566,169.86525 1104.97566,167.48725 1106.89566,164.87725 C1107.87966,165.51525 1108.95966,166.38525 1109.84766,167.54525 L1109.84766,167.54525 Z M1132.34821,138.212306 C1134.43621,136.588306 1141.82821,139.981306 1142.23621,142.852306 C1142.47621,144.360306 1142.33221,145.839306 1142.33221,147.347306 L1142.33221,156.105306 C1142.98021,155.467306 1144.13221,155.438306 1145.76421,156.308306 C1146.10021,156.511306 1146.29221,156.888306 1146.55621,157.207306 C1146.10021,157.787306 1145.64421,158.396306 1145.11621,158.918306 C1144.42021,158.077306 1143.67621,157.265306 1142.33221,156.192306 C1142.04421,156.569306 1142.33221,157.439306 1142.35621,158.048306 C1143.07621,158.396306 1144.01221,158.860306 1144.85221,159.324306 C1144.32421,159.933306 1143.86821,160.513306 1143.34021,161.209306 C1143.07621,160.832306 1142.64421,160.513306 1142.47621,160.136306 C1142.04421,159.150306 1142.35621,158.744306 1142.35621,158.048306 C1140.22021,157.207306 1138.75621,156.685306 1137.43621,156.453306 C1135.32421,153.843306 1133.42821,150.972306 1131.24421,148.449306 C1129.80421,146.738306 1129.32421,143.954306 1129.46821,141.025306 C1130.45221,140.126306 1131.29221,139.082306 1132.34821,138.212306 L1132.34821,138.212306 Z M1156.47853,117.682774 C1157.80733,114.833184 1158.39791,111.533658 1159.25916,108.564084 C1168.14241,97.6456522 1177.32094,86.2772849 1186.49948,74.9089177 C1188.09895,72.9891934 1196.26859,74.3389995 1198.21257,76.8286419 C1198.45864,77.2185859 1198.75393,77.9684782 1199,78.6883748 C1190.01832,89.0068929 1181.15969,99.5653764 1171.78429,109.433959 C1167.23194,114.263265 1167.62565,119.902456 1167.65026,125.781611 C1167.65026,127.011435 1167.79791,128.391236 1167.57644,129.531073 L1156.47853,129.531073 L1156.47853,137 C1154.6822,136.37009 1153.10733,135.530211 1152.86126,134.600345 C1152.36911,132.950582 1152.22147,131.240827 1152,129.501077 C1153.47644,129.501077 1155.00209,129.531073 1156.47853,129.531073 L1156.47853,117.682774 Z M480.892,391.2655 C481.852,391.2655 482.788,391.4685 483.724,391.4395 C488.476,391.3525 491.788,393.5855 494.452,397.8195 C495.772,400.0815 497.332,401.1545 499.108,401.7345 C497.932,401.7055 496.804,401.5605 495.724,401.5605 C494.596,400.7775 493.564,399.7625 492.46,399.2405 C488.476,397.0945 484.996,393.1215 480.892,391.2655 L480.892,391.2655 Z M475.968,392.2535 C475.032,392.5145 474.264,392.3695 473.256,392.9205 C472.848,392.5725 472.44,392.3695 472.032,392.0795 C473.328,392.1375 474.672,392.2535 475.968,392.2535 L475.968,392.2535 Z M527.383106,282.128014 C525.079106,280.765014 523.687106,278.938014 524.215106,275.864014 C524.311106,275.400014 525.775106,275.081014 526.903106,275.052014 C526.447106,274.878014 525.727106,274.704014 525.127106,274.530014 C525.175106,274.443014 525.295106,274.356014 525.343106,274.269014 C525.967106,274.530014 526.495106,274.704014 527.479106,274.994014 C527.383106,274.936014 527.095106,275.023014 526.903106,275.052014 C529.351106,275.748014 529.975106,276.212014 530.479106,276.647014 C531.127106,277.314014 532.063106,278.416014 531.871106,279.141014 C531.031106,282.766014 529.471106,283.404014 527.383106,282.128014 L527.383106,282.128014 Z M428.768507,302.557219 C430.952507,301.107219 433.424507,300.237219 432.776507,304.355219 C435.248507,302.064219 437.456507,300.585219 439.520507,299.686219 C441.032507,302.354219 440.144507,303.137219 437.000507,304.123219 C435.416507,304.587219 433.784507,304.964219 432.224507,305.167219 C432.464507,304.848219 432.464507,304.703219 432.776507,304.355219 C432.224507,304.761219 431.792507,304.964219 431.240507,305.312219 C430.088507,305.341219 428.936507,304.964219 427.760507,304.355219 C428.144507,303.746219 428.336507,302.847219 428.768507,302.557219 L428.768507,302.557219 Z M558.942762,297.26104 C562.059908,298.59504 562.65365,301.23404 563,303.98904 C558.843805,307.55604 554.786566,311.18104 550.976721,314.80604 C550.382979,314.51604 549.764497,314.28404 549.195494,313.70404 C545.558823,309.78904 539.472966,309.09304 537.642261,302.74204 C536.702169,299.55204 536.702169,296.91304 538.260742,294.36104 C539.794576,291.80904 541.971631,290.70704 545.01456,290.27204 C551.100417,289.46004 554.168085,295.20204 558.942762,297.26104 L558.942762,297.26104 Z M399.32266,-1253.77914 C398.30453,-1253.77914 396.988411,-1255.89614 396.367601,-1257.37514 C395.324638,-1259.75314 396.516595,-1262.82714 399.744811,-1264.16114 C402.327384,-1265.20514 407.09521,-1263.05914 408.01401,-1264.71214 C414.818096,-1277.09514 424.87523,-1275.64514 434.733704,-1274.97814 C435.900829,-1274.89114 437.092785,-1272.83214 437.763261,-1271.35314 C438.185412,-1270.45414 438.011585,-1268.74314 437.490104,-1267.78614 C436.794796,-1266.33614 435.602839,-1265.20514 434.48538,-1264.04514 C431.455824,-1260.50714 428.376602,-1256.99814 425.471208,-1253.63414 C416.531533,-1253.63414 407.964345,-1253.48914 399.32266,-1253.77914 L399.32266,-1253.77914 Z M1709.48,132.096274 C1707.2,133.401274 1704.752,134.677274 1702.52,135.924274 C1703.456,134.822274 1704.344,133.691274 1705.232,132.560274 C1706.744,130.559274 1708.184,130.762274 1709.48,132.096274 L1709.48,132.096274 Z M1117.032,611.401 C1119.288,609.98 1120.416,606.558 1120.968,601.599 C1120.68,607.254 1119.336,610.502 1117.032,611.401 L1117.032,611.401 Z M1129.74,654.420922 C1128.636,654.333922 1127.556,654.391922 1126.572,654.217922 C1125.444,654.043922 1124.508,651.839922 1123.476,650.592922 C1125.252,648.475922 1126.812,644.734922 1128.564,644.618922 C1129.908,644.531922 1131.204,644.618922 1132.524,644.589922 C1131.348,647.663922 1130.532,650.998922 1129.74,654.420922 L1129.74,654.420922 Z M440.005554,672.809506 C439.654279,670.085213 436.869166,667.064801 434.560784,665.761879 C432.101855,664.399732 428.062187,666.057998 426.180354,664.251673 C421.438135,659.839503 416.971918,654.746259 413.484254,648.912719 C408.742035,640.858288 398.981595,646.514157 394.891744,637.452922 C392.357543,631.767441 387.063319,634.017944 383.249471,632.241231 C379.485805,630.434906 376.550146,625.489722 373.363575,621.936297 C364.782417,624.157188 360.3162,616.369263 354.620518,610.979901 C352.713594,609.203188 347.996466,611.927481 346.164816,610.121157 C337.232382,601.533711 331.5367,587.379233 318.062776,587.17195 C313.797288,581.989871 308.954705,577.400029 305.567405,571.507265 C301.502646,564.34119 294.025496,569.878612 290.186557,563.926624 C286.222162,557.678517 281.555216,554.361987 274.981346,555.901805 C271.769685,552.20032 268.48275,548.558058 265.296179,544.915797 C256.263381,547.610478 251.571344,539.704106 247.080036,532.863762 C242.18727,525.283121 235.688673,523.121454 228.58789,521.167069 C225.200591,520.219489 224.372584,516.221886 218.701994,511.987387 C206.733537,505.620833 201.439313,499.165443 196.14509,492.710053 C194.062528,490.133819 191.051595,490.696445 188.115935,489.808089 C180.162055,487.379915 175.06856,475.683222 164.881571,479.029364 C160.365172,480.480347 156.777143,477.519159 153.389844,473.462331 C151.733831,471.478335 150.705096,470.589979 149.67636,470.353084 C149.400358,468.072969 148.798172,465.348676 147.995256,461.94331 C143.654495,464.31226 139.163187,466.503539 134.897699,469.050161 C134.170056,469.494339 133.843872,469.849682 133.191503,470.264248 C130.431482,466.977329 127.621278,463.808858 125.137258,460.314656 C120.87177,454.333057 113.821169,459.929702 109.580772,452.941298 C105.21492,445.597552 99.2683273,439.764012 93.9239216,433.27901 C89.7086157,428.126543 85.5184009,423.003688 81.303095,417.851221 C77.062698,412.669142 72.822301,407.546287 68.6069951,402.423431 L63.2374983,402.423431 C58.4450969,400.469047 54.1545177,398.988453 50.2653962,396.856398 C46.6773679,394.813178 43.8169818,394.428224 40.9315046,396.974845 C39.9529514,397.803978 39.852587,398.810782 39.852587,400.054481 C35.8380099,395.050073 31.8234329,390.104889 27.7586736,385.130093 C28.561589,384.833975 29.3143222,384.745139 30.2928754,383.649499 C30.7946975,383.146098 30.443422,381.014042 29.966691,379.770343 C29.4397778,378.171302 28.6368623,376.453813 27.5328537,375.476621 C26.3535717,374.351369 23.6688233,373.226118 23.3175478,373.670296 C22.2888124,375.062054 21.9375369,376.57226 22.0379013,378.112078 C20.1560683,375.891187 18.2993265,373.611072 16.5178579,371.390181 C1.51337618,370.26493 -5.18594926,354.896364 -14.5198409,344.206476 C-24.3304636,332.983573 -34.1159951,321.642223 -42.8477002,309.264457 C-49.3462968,300.114386 -60.010017,295.258038 -61.415119,280.304039 C-62.4940366,268.814629 -72.5806614,264.372847 -77.8247027,255.90385 C-77.3981539,241.364417 -86.8324099,234.464849 -93.6320998,225.640509 C-99.8296031,217.674913 -106.303109,210.094272 -112.626067,202.335959 C-116.414825,197.686894 -116.063549,193.659678 -111.045328,184.183877 C-100.080514,197.568447 -88.9902451,211.189911 -77.7996116,224.959435 C-78.0505226,225.19633 -78.4519804,225.462837 -78.4519804,225.581285 C-77.9752493,228.424025 -77.5487005,232.007063 -75.7923231,233.902223 C-73.0573924,237.01147 -70.9246484,236.744964 -70.4228263,234.050283 C-70.2722796,234.198342 -70.1468241,234.287178 -70.0213686,234.494461 L-70.0213686,236.271173 C-70.598464,236.093502 -71.2257417,235.856607 -71.3762883,236.034278 C-73.6093968,239.05469 -73.0323013,242.252773 -71.2257417,245.658139 C-70.0464597,247.87903 -68.5660844,248.204761 -66.8849802,247.523688 C-66.7595247,247.671747 -66.7093425,247.87903 -66.5587959,248.02709 C-61.0387524,253.564511 -57.1998131,262.507299 -48.217197,259.871842 C-43.9266178,264.935473 -39.6611296,270.028717 -35.3705504,274.9739 C-33.2879886,277.313239 -30.8792424,281.636573 -28.8217716,281.458902 C-26.4381165,281.222007 -24.5562835,281.784633 -22.7497238,282.613765 C-20.8177086,287.025936 -18.1329602,291.290046 -15.9751251,295.583769 C-15.3478474,296.85708 -12.8638279,296.85708 -11.3081793,297.745436 C-5.3114048,300.825072 -1.92410541,299.374089 0.760642986,292.889088 C1.5886495,292.77064 2.46683823,292.622581 3.26975364,292.592969 C11.12327,292.178403 17.3458644,294.103175 22.665179,301.891099 C27.2568515,308.464937 31.5474307,316.963546 40.6053202,314.742655 C44.9460816,319.53978 49.286843,324.307292 53.6025134,329.163641 C58.9971013,335.204464 64.3665981,341.422959 69.761186,347.611842 C78.7688932,345.242891 82.3820126,354.629857 87.9773293,359.959996 C92.5188196,364.312942 90.5366222,369.820752 91.1388087,375.298949 C109.957139,398.218544 128.875833,421.552706 148.020347,444.501913 C152.085107,449.358261 154.845128,457.53114 161.544454,456.998126 C168.896148,456.4355 171.505623,463.512739 175.946749,467.865686 C184.427543,465.73363 189.270126,472.929317 194.388712,479.177424 C209.317921,477.045369 212.554673,495.523182 222.214749,502.659645 C225.300955,504.939759 226.630784,507.960171 225.200591,511.928163 C225.100227,512.19467 224.523131,512.165058 223.971127,512.165058 C227.835157,512.342729 229.089712,512.550012 229.71699,511.898551 C233.10429,508.700468 235.989767,504.969371 239.126155,501.415946 C244.570925,508.137842 249.4386,515.274305 255.309919,520.752503 C258.29576,523.624856 263.840895,522.381157 267.052557,525.164673 C271.870049,529.251113 275.583533,535.203101 279.82393,540.325956 C284.566149,546.159496 291.064746,546.870181 295.02914,541.80655 C300.147726,535.203101 304.940128,528.362756 308.653611,523.239901 L337.433111,523.239901 C344.182618,530.554035 349.276113,539.704106 357.129629,544.886185 C368.922449,545.804154 380.715269,543.257532 392.081541,546.159496 C400.788155,556.878997 409.143493,567.213543 417.599196,577.459253 C419.029389,577.636924 420.509764,577.784984 421.965048,577.784984 C424.900708,577.844207 427.911641,577.844207 430.872391,577.844207 C436.467708,577.72576 439.955372,580.864619 440.256465,585.928251 C440.381921,589.511288 440.105918,593.242385 440.281556,596.855034 C440.833561,609.676978 441.812114,610.65417 453.906027,610.713394 C459.902802,610.743006 465.77412,610.713394 470.491248,610.713394 C476.462932,614.474103 478.47022,621.99552 485.922279,621.936297 C523.082208,621.373671 560.242137,621.66979 596.82497,621.66979 C601.717736,626.55575 604.653395,632.122783 611.653814,633.070363 C624.124094,634.699017 638.626753,625.015932 648.964289,641.36169 C649.767205,642.516553 651.373035,643.434521 652.677773,643.493745 C658.599274,643.73064 664.570958,643.404909 670.467368,643.612193 C676.263413,643.937923 682.034368,644.648608 687.855504,645.181622 C691.870081,654.065186 700.350875,652.614204 705.996374,657.174434 C710.864049,661.023978 714.351713,666.087609 721.151403,665.761879 C734.499871,664.99197 747.898522,664.99197 761.297173,665.702655 C768.548503,666.087609 771.283434,659.424936 776.176199,654.568588 C799.360382,654.568588 823.146751,653.917127 846.857847,654.864707 C855.464096,655.22005 860.683046,650.896715 865.349992,643.612193 L900.753543,643.612193 C900.552815,645.329682 900.954272,647.313678 902.911379,649.623404 C903.237563,650.097194 905.847038,648.498153 907.001229,647.402513 C908.004873,646.484545 908.305966,645.15201 908.004873,643.612193 L910.89035,643.612193 C914.829654,636.031551 920.199151,631.027144 928.780309,632.448514 C934.626537,633.396094 940.598221,632.655797 946.0179,632.655797 C949.605928,629.07276 952.215403,624.897485 956.280162,622.676594 C958.663817,623.920293 961.122746,625.252827 963.531492,625.312051 C965.639145,625.312051 969.302446,623.239219 969.904633,621.52173 C979.840711,622.765429 990.153156,625.46011 998.081946,613.052733 C998.85977,611.838646 1000.4656,610.861454 1001.69506,610.772618 C1007.64166,610.535723 1013.61334,610.891065 1019.50975,610.65417 C1025.33089,610.446887 1031.10184,609.676978 1036.89789,609.203188 C1039.63282,602.45168 1045.12777,601.296816 1050.22127,599.549715 C1057.42241,604.702183 1062.71664,604.169169 1065.97848,597.476884 C1067.6094,594.249189 1069.08978,591.347225 1071.19743,588.770991 C1072.35162,588.741379 1073.45563,588.770991 1074.63491,588.770991 C1076.11529,588.770991 1077.87166,589.392841 1079.05095,588.682156 C1085.17318,584.802999 1088.88666,574.764572 1097.71873,577.844207 C1100.98057,574.201946 1104.19224,570.648521 1107.45408,567.006259 C1113.95268,574.705348 1111.39338,575.35681 1125.69531,578.762176 C1129.70989,579.739368 1129.70989,583.292793 1127.32624,586.372429 C1124.56621,589.925854 1120.928,592.561312 1120.652,598.898254 C1120.70218,598.335628 1120.80255,598.03951 1120.87782,597.506496 C1120.97819,595.966678 1119.19672,592.709371 1118.79526,592.709371 C1114.65523,593.47928 1110.4901,594.841427 1109.361,595.167157 C1105.22097,597.388048 1103.89114,598.424464 1102.36058,598.868642 C1098.79765,599.78661 1096.74018,602.274008 1097.06636,606.567731 C1097.11654,607.278416 1099.97693,607.959489 1101.53258,608.492503 C1104.09187,609.499307 1105.99879,609.943485 1107.98099,610.446887 C1102.91259,610.713394 1098.44637,612.490107 1094.45689,615.865861 C1095.28489,612.786226 1096.03763,609.676978 1096.91581,606.567731 C1095.41035,605.975493 1093.55361,604.465287 1092.52487,604.909466 C1085.70009,608.255608 1078.95058,611.838646 1072.4018,615.777026 C1071.34798,616.310039 1071.34798,618.915885 1070.92143,620.544538 C1077.09384,621.314447 1077.7713,627.681001 1080.23023,632.211619 C1081.13351,633.840272 1081.83606,635.557761 1082.46334,637.245638 C1083.34153,636.653401 1084.37026,636.179611 1085.399,635.765044 C1085.49936,636.771848 1085.32372,638.163607 1085.62482,638.992739 C1087.33101,642.694224 1089.8903,644.263654 1093.05178,643.552969 C1098.19546,642.516553 1101.53258,645.655412 1102.71186,651.252058 C1103.4395,654.568588 1102.96277,657.440941 1101.98422,659.839503 C1101.53258,658.684639 1101.13112,657.559388 1100.80494,656.404525 C1094.80816,659.63222 1090.56776,662.356513 1086.00118,664.192449 C1084.97245,664.577404 1084.59608,665.080806 1083.89353,665.495372 L1071.74943,665.495372 C1068.51268,669.196857 1065.27593,672.839118 1062.01409,676.481379 C1055.46531,674.91195 1050.77327,678.406151 1046.88415,684.595034 C1045.07759,687.585834 1042.31757,688.000401 1038.93027,687.496999 C1034.74005,686.875149 1030.9262,687.171268 1027.38836,688.859145 C1024.82907,687.822729 1022.34505,686.786313 1019.83593,685.77951 C1011.60605,683.913961 1010.60241,684.506199 1006.91402,692.797525 C998.608859,690.9912 997.630306,691.494602 993.967004,699.785929 C985.636757,697.949992 984.708386,698.423782 980.969811,706.715109 C980.49308,708.491821 980.49308,711.245726 979.36398,712.045247 C975.098492,714.858376 970.306091,716.575865 966.090785,719.537053 C961.273292,722.942419 956.857258,720.721528 951.864127,719.685112 C946.469539,718.382189 943.684427,721.491437 941.877867,728.568676 C940.874223,732.181325 940.171672,735.942034 938.741479,739.377012 C937.210921,743.256168 937.361468,746.691146 940.171672,750.096513 C943.232787,753.857221 950.383752,756.166948 953.720869,754.390235 C974.947945,742.96005 996.200113,731.441028 1017.37701,719.922007 C1020.51339,723.801163 1023.92579,727.769155 1026.76108,731.292969 L1032.95858,731.292969 C1031.90476,732.181325 1030.82584,733.276965 1029.84729,734.254157 C1029.49601,734.609499 1031.35275,738.725551 1031.80439,738.607103 C1034.3135,738.310984 1037.32444,737.896418 1038.98045,736.060482 C1040.61137,734.224545 1041.06301,732.507056 1040.56119,731.292969 C1045.47905,733.276965 1050.47218,736.889614 1055.11403,736.800778 C1059.78098,736.711943 1063.99628,731.441028 1068.7385,730.908014 C1073.2549,730.434224 1078.02221,736.50466 1082.91498,732.033266 C1088.83648,726.762351 1095.23471,728.183721 1101.78349,731.796371 C1104.8697,733.454636 1108.13154,734.520664 1111.09229,735.764363 C1115.93487,733.099294 1120.45127,730.611896 1125.01785,728.213333 C1126.47314,727.324977 1128.07897,726.703127 1129.50916,725.725935 C1132.219,723.978835 1133.52374,713.022439 1131.943,710.238922 C1129.9608,706.715109 1127.82806,706.300542 1124.29021,709.676297 C1118.46907,715.361777 1111.81993,710.416594 1105.57225,710.446205 C1101.98422,713.851572 1098.34601,714.739928 1094.75798,714.739928 C1096.79036,713.022439 1098.89801,710.979219 1100.98057,709.350566 C1110.59047,712.015635 1113.95268,694.485402 1124.01421,698.39417 C1128.30479,693.567434 1132.72082,688.859145 1136.93613,684.002797 C1140.19797,680.2717 1143.73582,676.688662 1146.21984,672.276492 C1147.72531,669.670647 1147.72531,665.495372 1147.47439,662.119618 C1147.22348,657.411329 1143.53509,654.953543 1137.83941,654.568588 C1138.29105,654.065186 1138.81796,653.561784 1139.16924,652.939935 C1140.59943,650.18603 1141.40235,646.987947 1142.07981,643.73064 C1147.02275,643.73064 1152.01588,643.612193 1156.93374,643.552969 C1161.04868,644.944727 1162.35342,644.026759 1165.36435,637.393698 C1167.79819,632.211619 1169.98112,627.681001 1175.04952,625.9339 C1178.71282,624.690201 1180.59465,622.380475 1181.99976,618.827049 C1182.20049,618.2052 1182.20049,617.672186 1182.40121,617.079948 C1186.06452,613.230404 1189.52709,608.788622 1195.12241,610.32844 C1196.95406,610.831842 1200.14063,607.041521 1201.79664,604.406064 C1205.03339,599.283209 1209.34906,599.46088 1213.68982,599.78661 C1219.73678,600.290012 1225.45755,599.993894 1229.19613,592.916654 C1230.57614,590.310809 1232.30743,589.363229 1234.44017,589.007886 C1232.23215,596.47008 1234.44017,601.533711 1241.46568,604.613347 C1244.77771,605.91627 1248.165,606.804626 1251.10066,608.699786 C1254.6636,610.979901 1257.67453,611.335244 1260.38437,608.107549 C1262.0153,606.153165 1261.18729,603.103141 1258.87891,599.016702 C1256.54543,594.841427 1254.63851,590.399645 1252.33013,586.165146 C1259.65673,577.933043 1260.3091,576.15633 1264.04767,563.423222 C1265.60332,557.974636 1268.68953,555.220731 1273.8583,555.783357 C1281.68672,556.642102 1283.64383,542.161892 1292.42572,544.856573 C1293.63009,545.152692 1295.41156,544.501231 1296.39011,543.494427 C1303.34035,537.127873 1307.00365,524.720495 1316.26227,523.417572 C1326.67508,521.996202 1330.13765,511.24709 1336.81188,504.939759 C1340.29955,501.593617 1343.46103,497.566401 1346.27123,493.391126 C1349.70871,488.327495 1354.37566,490.962952 1359.01751,489.363911 C1368.85323,476.778862 1379.11549,463.779246 1389.35266,450.720407 C1390.85813,448.736411 1387.92247,436.447481 1385.58899,436.417869 C1377.78566,436.240198 1371.71361,432.420266 1367.5234,424.661953 C1362.30445,427.682365 1360.4728,436.921271 1353.17129,435.32223 C1351.79127,434.996499 1350.08508,435.707184 1348.85562,434.907663 C1345.29268,432.657161 1344.61522,429.844032 1346.62251,427.327022 C1351.86655,420.901244 1357.31132,414.68275 1362.35463,407.990465 C1368.27613,400.084093 1379.39149,403.489459 1384.00826,392.681123 C1384.4348,391.733543 1386.56755,391.674319 1388.02283,391.496648 C1389.45303,391.318976 1391.00867,391.111693 1392.43887,391.496648 C1405.23533,394.428224 1410.25355,382.731531 1416.20014,372.722716 C1415.09614,359.456594 1424.68094,355.192483 1430.32644,347.611842 C1441.51707,350.484194 1445.05492,337.928757 1451.62879,331.591815 C1455.09136,328.127225 1458.15248,324.188845 1460.98777,320.81309 L1460.98777,310.300873 C1471.87731,296.649796 1482.16466,283.590957 1492.10074,270.946685 C1496.96842,270.443283 1501.33427,272.160772 1504.84702,266.77141 C1509.26306,259.990289 1516.69003,255.518895 1514.70783,244.41444 C1518.87295,237.603708 1526.12428,232.540077 1523.66535,221.672517 C1526.67629,217.79336 1529.68722,213.914204 1532.64797,210.153495 C1532.64797,202.602466 1531.69451,195.081049 1532.79852,188.122257 C1534.50471,177.580428 1527.60466,172.931363 1524.36791,166.002183 C1528.70867,160.61282 1532.79852,155.282682 1537.13928,150.426334 C1537.99238,149.537977 1540.07494,150.307886 1541.53022,150.307886 C1540.52658,146.132611 1542.20768,143.734049 1544.59134,140.772861 C1551.69212,132.274251 1560.92565,125.226624 1560.69983,110.568744 C1560.64965,109.325045 1562.58166,107.04493 1563.68567,106.89687 C1568.1017,106.42308 1572.56792,106.511916 1577.03414,106.452692 C1583.75855,106.42308 1585.46475,106.186185 1585.96657,98.131754 C1586.41821,89.6627564 1591.18552,86.0204952 1593.99573,80.0388954 C1596.6052,74.3534145 1594.623,65.61791 1600.59469,61.5906943 C1606.96783,57.3265836 1601.44778,47.4066039 1606.96783,42.8463744 C1612.4126,38.3157567 1613.11515,31.8603669 1613.74243,24.1908901 C1614.04352,19.8971675 1620.21593,16.7286963 1621.82176,12.0500193 C1623.10141,8.37814622 1622.2734,3.78830485 1624.10505,0.116431745 C1627.81854,8.37814622 1632.41021,15.7811162 1641.09173,19.1864824 C1643.77648,25.1680821 1646.5365,31.4161887 1649.32162,37.516236 C1648.5187,41.7211229 1648.74452,46.3109643 1649.0958,50.8711938 C1649.44707,55.0760807 1648.34306,57.6227024 1646.38596,60.6135023 C1639.93754,70.1485276 1640.11318,70.3261989 1640.063,79.2689866 C1640.03791,82.852024 1640.063,86.5238971 1640.063,89.9884871 C1636.72588,94.0157027 1633.63967,97.9244709 1630.40292,101.774015 C1626.63926,106.09735 1626.68944,106.126962 1629.6251,121.169797 C1629.85092,122.354272 1629.80073,124.545551 1629.29891,124.900893 C1619.16211,131.297059 1624.50651,149.715649 1613.5417,155.312294 C1612.56314,160.316702 1614.59552,165.942959 1610.4304,170.236681 C1605.93909,175.004194 1601.49797,180.156661 1597.80957,185.81253 C1593.41863,192.356756 1596.12847,203.727718 1588.19968,208.228723 C1587.12076,213.203519 1586.99531,218.859388 1584.88765,222.975439 C1580.22071,231.888615 1569.70753,235.945443 1568.70389,247.582912 C1567.5497,260.31602 1558.81799,264.876249 1553.1725,272.575338 C1549.58447,277.49091 1551.99321,283.206003 1550.01102,287.440502 C1547.30118,293.451713 1540.7524,296.176006 1541.40477,305.148406 C1541.83132,311.337289 1538.56947,314.091194 1533.37561,314.890714 C1523.96645,316.341697 1521.18133,322.767475 1525.04537,332.746678 C1525.67264,334.286496 1526.97738,336.24088 1528.18175,336.448163 C1531.09232,337.040401 1535.08181,338.13604 1536.96364,336.359327 C1543.8637,329.726266 1550.01102,322.027178 1556.55979,314.742655 C1567.57479,316.637815 1571.36355,304.58578 1577.61123,297.745436 C1586.41821,287.943904 1594.82373,277.431686 1602.90307,266.77141 C1606.81728,261.767002 1613.5417,258.568919 1613.06497,250.159145 C1612.46278,241.09791 1618.98647,238.432841 1621.79667,232.540077 C1623.10141,229.786172 1621.97231,225.403614 1621.97231,221.672517 C1628.34545,213.914204 1634.64332,206.185504 1640.99137,198.456803 C1642.0201,197.183492 1643.07393,195.880569 1644.15285,194.607259 C1645.83395,192.712098 1655.24312,195.051437 1656.27185,197.538835 C1657.42604,200.174292 1656.57295,202.780137 1653.3111,205.297147 C1649.87362,207.902993 1649.12089,210.420002 1650.97763,213.085072 C1653.0351,215.987036 1655.54421,216.668109 1658.9566,216.164707 C1664.85301,215.246739 1666.23302,214.654501 1666.65957,206.12628 C1666.93557,199.848561 1668.69195,196.147076 1673.18326,194.222304 C1674.4629,193.659678 1676.1691,194.548035 1677.59929,194.044633 C1686.40627,191.142669 1686.40627,191.053833 1681.76442,184.894562 C1674.66363,175.507596 1673.96108,169.022594 1679.50622,162.300698 C1686.883,153.209851 1694.33506,144.148615 1701.71185,135.028156 C1703.76932,139.736445 1705.8017,144.474346 1708.13517,149.034575 C1701.48603,154.92734 1702.59003,163.692456 1702.6904,172.131842 C1702.01294,171.361933 1700.63293,171.273097 1698.77619,172.398349 C1696.94454,173.493988 1695.84053,176.455176 1694.7867,178.824127 C1694.56088,179.238693 1696.94454,182.229493 1697.29581,181.992598 C1699.27801,180.660063 1701.71185,179.238693 1702.53985,176.958578 C1703.46822,174.737687 1703.46822,173.109034 1702.79076,172.220677 C1704.24605,172.220677 1706.27843,172.960974 1707.10643,172.043006 C1710.54392,168.252685 1713.75558,164.107022 1717.04251,160.079807 C1720.83127,161.590013 1726.75277,161.027387 1728.15787,158.184646 C1729.68843,155.105011 1731.89645,150.604005 1730.86771,147.8501 C1730.29062,146.251059 1729.68843,144.53357 1729.18661,142.816081 C1729.88916,140.358295 1730.24043,137.634002 1729.56297,134.228636 C1733.67792,129.046557 1737.24085,122.620779 1742.15871,118.919294 C1749.5355,113.263425 1745.06928,101.714791 1751.41733,95.910863 C1754.93008,92.6831681 1757.6901,88.1821624 1760.70104,84.4806774 L1778.81682,84.4806774 C1783.15758,79.2689866 1787.3227,74.1461314 1791.58819,68.9048286 C1791.03619,59.0736845 1795.35186,52.4998472 1800.79663,46.0740693 C1802.277,44.2973565 1802.42755,37.5754597 1801.04754,35.7099113 C1783.25794,13.2641064 1765.19235,-8.76713221 1747.12675,-30.9464302 C1748.45658,-35.6547191 1749.83659,-40.3037842 1751.11624,-45.0120731 C1752.6217,-50.4902709 1754.15226,-56.0869162 1755.60754,-61.6539496 C1756.8621,-66.2141791 1754.25262,-70.2117829 1747.5533,-74.1797748 C1741.00452,-78.0293192 1739.09759,-81.4050735 1740.67833,-87.3866732 C1742.05835,-92.9240947 1743.66418,-98.4319044 1745.16964,-103.939714 C1746.19838,-107.611587 1747.37766,-111.253848 1748.18058,-115.014557 C1749.58568,-120.788874 1740.52779,-129.169036 1734.22992,-127.836501 C1729.88916,-126.859309 1726.30113,-120.58159 1721.45855,-123.957345 C1708.83772,-133.01858 1708.98827,-133.373923 1703.59368,-130.323899 C1699.05219,-127.747665 1694.46052,-125.319491 1689.84375,-122.891317 C1688.91538,-126.296683 1686.93318,-129.938945 1687.28446,-133.137028 C1687.58555,-136.512782 1689.31684,-140.836116 1691.75068,-142.435158 C1699.0271,-147.20267 1706.95589,-150.726484 1714.45813,-155.168266 C1715.58723,-155.790116 1715.63741,-158.573632 1716.5156,-160.11345 C1718.57307,-163.903771 1718.4978,-167.51642 1716.01378,-171.040234 C1714.15704,-173.734915 1711.47229,-173.49802 1708.03481,-170.477608 C1704.54714,-167.190689 1701.91258,-167.072242 1700.25656,-170.329549 C1699.50383,-171.958202 1698.37473,-174.267929 1698.77619,-175.718911 C1701.13475,-184.987429 1702.89113,-194.700126 1706.45407,-203.257959 C1711.4221,-214.836204 1708.28572,-225.229974 1704.22096,-236.127146 C1706.95589,-246.876258 1712.72684,-257.477311 1703.91986,-268.848273 C1703.97005,-278.560969 1705.8017,-287.562981 1711.47229,-294.758668 C1712.60139,-296.091202 1714.5334,-296.328097 1716.01378,-297.246066 C1721.40836,-300.917939 1721.70946,-304.737871 1716.94215,-308.587416 C1704.92351,-318.448172 1704.92351,-318.448172 1707.98462,-330.144864 C1708.8879,-333.816737 1709.99191,-337.518222 1711.02065,-341.278931 C1719.82763,-346.342562 1728.76006,-351.554253 1737.29104,-356.440213 C1739.54923,-364.435421 1741.00452,-372.104898 1743.71436,-379.06369 C1746.80056,-387.147733 1743.86491,-393.573511 1741.18016,-401.12454 C1739.49905,-405.743993 1742.53508,-412.199383 1741.12997,-417.174179 C1740.47761,-419.720801 1739.39869,-422.119363 1738.42014,-424.547537 L1738.42014,-458.275468 C1736.86449,-460.170629 1735.23356,-462.095401 1733.75319,-463.931337 C1734.12956,-465.175036 1734.40556,-466.270676 1734.78192,-467.662434 C1728.03242,-482.468374 1720.88145,-498.340342 1714.15704,-513.205505 C1716.56578,-521.881786 1718.62325,-529.284756 1720.58036,-536.687726 C1722.13601,-542.1067 1722.9891,-548.591702 1728.98588,-548.976656 C1730.46625,-549.095104 1733.02555,-543.409623 1734.05428,-540.033868 C1735.38411,-535.562475 1737.3914,-532.927017 1741.55652,-532.630899 C1739.34851,-529.018249 1739.49905,-525.435212 1742.28417,-522.177905 C1745.27001,-518.772539 1748.3813,-521.082265 1751.54278,-528.544459 C1753.17371,-527.863386 1755.38172,-526.086673 1756.33519,-526.708523 C1763.76215,-531.23914 1771.16403,-535.029461 1779.97101,-529.728934 C1786.09324,-533.075077 1792.06492,-536.27316 1798.41297,-539.678526 C1794.02203,-550.161131 1789.5809,-560.614125 1785.18996,-570.800612 C1785.79214,-572.932667 1786.29397,-574.916663 1786.84597,-576.60454 C1789.83181,-585.665775 1792.56674,-594.490116 1785.99287,-603.906693 C1783.78486,-607.015941 1784.88886,-610.776649 1786.09324,-614.744641 C1787.72416,-620.015556 1788.50198,-625.641813 1789.65617,-631.149623 C1783.68449,-639.529785 1784.28668,-648.798303 1785.49105,-658.096433 C1779.54446,-667.039221 1779.84555,-675.893173 1783.43358,-685.250527 C1784.56268,-688.478222 1784.88886,-692.623885 1784.2365,-696.088475 C1783.53394,-699.819572 1781.1252,-703.195326 1779.51937,-706.778364 C1775.83097,-715.395421 1769.78402,-723.272181 1774.37569,-733.932458 C1775.32915,-736.034901 1771.94185,-740.891249 1770.46148,-744.415063 C1769.78402,-746.251 1767.82691,-748.76801 1768.30364,-749.656366 C1773.64805,-759.546734 1767.87709,-767.956508 1764.38943,-776.455117 C1767.04909,-785.901307 1769.58329,-795.051378 1772.04222,-804.260672 C1774.09969,-812.048597 1770.1102,-818.267091 1761.70468,-820.073416 C1760.22431,-820.399147 1758.51811,-819.688462 1757.03774,-819.125836 C1753.32425,-817.911749 1753.55007,-815.276292 1756.48573,-810.568003 C1757.91592,-808.050993 1759.29594,-803.43154 1758.36756,-801.417932 C1756.51082,-797.597999 1752.64679,-798.131013 1749.15913,-800.618411 C1743.43836,-804.556791 1738.92196,-801.743663 1736.96485,-796.176629 C1734.98265,-790.52076 1732.54882,-786.552768 1727.5055,-784.420713 C1726.02513,-783.798863 1723.16474,-782.792059 1723.18983,-782.081374 C1723.61638,-778.794456 1724.6953,-775.477925 1725.67385,-772.339066 C1726.30113,-770.414294 1727.5055,-768.78564 1727.93205,-766.920092 C1729.08624,-762.626369 1724.1182,-752.943285 1721.60909,-752.795225 C1718.67343,-752.617554 1717.34361,-754.186984 1715.41159,-758.954496 C1711.79847,-767.98612 1707.4828,-776.780848 1703.41804,-785.6348 C1701.71185,-789.188225 1702.94131,-792.56398 1703.41804,-796.531972 C1704.59732,-806.185445 1704.17077,-806.392728 1692.20232,-811.841314 C1684.54953,-827.298715 1677.17274,-842.993011 1668.91777,-858.09507 C1667.78867,-860.375185 1662.72027,-860.878587 1659.55879,-860.819363 C1654.4402,-860.700915 1653.38638,-857.739727 1656.4224,-853.653288 C1663.59846,-844.177486 1659.2326,-835.441982 1656.72349,-826.499194 C1658.32932,-825.788509 1660.83843,-825.64045 1661.41553,-824.396751 C1667.28685,-812.167044 1672.70653,-799.670831 1678.57785,-786.700828 C1676.7462,-780.097378 1674.71382,-772.931303 1672.60616,-765.261827 C1675.64219,-758.332647 1678.22657,-750.9889 1681.91496,-744.474287 C1686.18045,-737.071317 1686.63209,-730.201361 1683.57098,-722.857615 C1688.18774,-714.418229 1691.70049,-705.682724 1687.58555,-696.058863 C1696.09144,-686.642286 1689.76848,-674.146072 1694.20961,-663.929974 C1696.51799,-658.599835 1698.32455,-653.47698 1695.99107,-647.761887 C1692.15213,-638.789488 1691.77577,-630.024371 1697.24563,-620.667017 C1698.67582,-618.268455 1697.54672,-613.234435 1696.4678,-610.065964 C1692.92996,-600.797446 1693.43178,-592.387672 1698.174,-582.91187 C1700.7082,-578.144358 1698.57546,-571.392849 1694.05906,-568.550109 C1688.13756,-565.055907 1683.62116,-561.502481 1680.56004,-553.92184 C1677.44875,-546.311587 1665.20429,-546.814989 1664.85301,-534.940625 C1660.53734,-532.216332 1656.37222,-529.373592 1651.98127,-526.945418 C1647.56524,-524.487632 1642.8732,-522.355576 1638.78335,-520.282745 C1638.30662,-518.654091 1638.00553,-517.38078 1637.55389,-515.900186 C1635.72224,-518.121077 1632.96221,-519.039046 1628.99782,-518.180301 C1626.58907,-517.676899 1624.43124,-514.715711 1622.12286,-512.879775 C1623.15159,-511.665688 1624.20542,-510.451601 1625.25924,-509.17829 C1626.41344,-507.579248 1627.51744,-506.098654 1628.67164,-504.61806 C1627.41708,-504.262718 1626.06216,-503.818539 1625.13379,-502.900571 C1619.58865,-497.570433 1618.35919,-487.087827 1622.37377,-484.245087 C1623.65341,-484.363534 1624.90797,-484.245087 1626.08725,-484.718877 C1629.44946,-486.140247 1630.27747,-489.427166 1631.05529,-492.743696 L1631.05529,-469.113416 C1636.19897,-463.250264 1642.07029,-457.712843 1640.21354,-447.141401 C1640.03791,-446.134597 1641.91974,-444.209825 1643.1492,-443.469528 C1645.23177,-442.196217 1647.43978,-443.824871 1648.86998,-447.733639 C1649.49725,-449.214233 1648.94525,-451.257453 1648.94525,-453.004554 C1648.94525,-458.364304 1650.30017,-464.405127 1648.64416,-468.876521 C1647.01323,-473.288691 1642.47174,-476.042596 1640.063,-478.529994 L1640.063,-501.656872 C1644.30339,-503.463197 1648.54379,-505.595252 1652.80928,-507.638472 C1659.70933,-503.019019 1665.55556,-505.743312 1671.95379,-508.971007 C1678.4273,-512.257925 1682.29133,-509.326349 1688.03719,-499.643264 C1692.15213,-492.417966 1692.20232,-492.388354 1698.57546,-495.379154 C1700.08092,-496.119451 1701.66166,-497.925775 1703.14204,-497.600045 C1705.8017,-497.21509 1708.43626,-493.543217 1707.43262,-489.634449 C1706.12788,-484.511594 1704.64751,-479.596022 1703.26749,-474.562002 C1698.02345,-474.562002 1693.63251,-471.097412 1693.80815,-466.774078 C1694.2347,-457.535171 1693.53215,-448.237041 1693.68269,-439.027746 C1692.70414,-435.62238 1691.80086,-432.128178 1690.87249,-428.752424 C1689.76848,-424.784432 1690.49612,-421.497513 1692.70414,-417.796028 C1695.9158,-412.702785 1696.29217,-407.431871 1694.56088,-401.450271 C1692.02668,-392.537095 1690.5463,-383.150129 1688.53902,-373.940834 C1698.67582,-360.112087 1689.9943,-348.089663 1687.33464,-335.652674 C1685.22699,-326.206484 1682.21606,-317.204473 1679.85749,-307.965566 C1679.50622,-306.336913 1679.85749,-303.819903 1680.76077,-302.546592 C1689.54266,-290.879511 1682.51715,-280.485742 1680.45968,-269.618182 C1680.15859,-268.1672 1681.31278,-266.153592 1681.8146,-264.258431 C1685.77899,-249.570939 1686.28082,-249.245208 1683.82189,-242.582535 C1680.91132,-235.001894 1681.16223,-228.250386 1685.27717,-220.699356 C1689.16629,-213.533281 1686.40627,-206.870608 1679.50622,-202.251155 C1678.05093,-201.273963 1676.42001,-200.59289 1674.91454,-199.704533 C1671.15088,-197.276359 1667.46249,-189.10348 1669.46977,-185.431607 C1674.41272,-176.311148 1675.51673,-167.782927 1671.90361,-158.040618 C1668.56649,-149.275502 1667.03594,-139.533194 1663.82428,-130.64963 C1662.84572,-127.65883 1659.30788,-125.674834 1656.57295,-123.957345 C1652.43291,-121.499559 1647.91651,-119.63401 1643.55066,-117.590791 C1642.47174,-119.78207 1641.91974,-121.706842 1640.84082,-123.424331 C1639.13463,-126.0894 1637.35316,-128.932141 1635.17023,-131.093808 C1633.46404,-132.663237 1626.16252,-120.966545 1627.61781,-117.886909 C1631.5822,-109.003345 1635.89787,-100.356677 1631.53202,-90.64398 C1639.83718,-79.6579726 1636.92661,-68.8200245 1633.11276,-57.863629 C1631.8833,-54.4582628 1633.46404,-51.3490154 1634.81896,-47.6475304 C1619.61375,-57.9524646 1619.4632,-57.9524646 1612.21187,-57.9820765 C1593.29317,-58.2485834 1574.42466,-58.4854785 1555.45579,-58.8112091 C1560.64965,-78.4142736 1565.8686,-97.9285024 1570.86173,-117.561179 C1571.213,-118.893713 1569.70753,-121.558783 1568.50316,-122.595198 C1567.67516,-123.157824 1565.5675,-122.15102 1564.33804,-121.292276 C1561.85402,-119.337892 1560.80019,-115.991749 1559.47036,-112.793666 L1559.47036,-113.563575 C1559.29473,-118.982549 1560.17291,-124.786477 1558.71763,-129.672438 C1557.48817,-133.96616 1553.69941,-137.164243 1551.01466,-140.836116 C1556.76052,-147.854132 1563.91149,-153.273106 1566.74678,-161.06103 C1569.65735,-168.908178 1570.38499,-177.880578 1576.83341,-183.329164 C1576.05558,-193.367591 1580.12034,-200.267159 1586.31785,-205.686133 C1586.31785,-220.521685 1586.24257,-235.149954 1586.4433,-249.718998 C1586.4433,-251.051533 1588.19968,-252.828246 1589.47933,-253.568543 C1591.56189,-254.78263 1594.347,-253.124365 1595.17501,-248.919478 C1596.02811,-243.91507 1594.47246,-238.348037 1598.83831,-234.291209 C1602.35106,-230.974679 1605.23654,-226.651344 1608.14711,-223.097919 C1613.11515,-225.585316 1613.11515,-230.708172 1613.2657,-236.067922 C1613.39115,-241.309225 1614.24425,-246.491304 1614.72098,-251.762218 C1621.79667,-257.477311 1623.15159,-265.916697 1622.07267,-275.362886 C1621.67122,-279.449326 1622.12286,-282.706633 1624.20542,-285.253254 C1629.52473,-291.708644 1634.76877,-298.223258 1640.063,-304.619424 C1640.063,-313.769495 1640.03791,-322.919565 1640.063,-332.040024 C1640.11318,-338.643474 1637.32807,-342.937196 1632.96221,-342.99642 C1626.96544,-343.144479 1620.99376,-343.026032 1615.02207,-342.99642 C1606.19,-342.907584 1598.56231,-334.17208 1595.37574,-319.188469 C1593.51899,-310.334517 1593.16772,-310.275293 1586.66912,-310.156845 C1582.17781,-310.038398 1577.7116,-310.127233 1572.66829,-310.127233 C1565.76823,-301.302893 1558.56708,-292.063987 1550.93939,-282.292066 C1550.68848,-270.950716 1552.29431,-257.832654 1541.65568,-249.570939 C1540.97822,-249.097149 1541.65568,-246.076737 1541.53022,-244.329636 C1540.7524,-236.689771 1538.82038,-233.639748 1534.45453,-233.432465 C1531.49378,-233.254793 1528.43266,-233.462076 1525.44682,-233.373241 C1517.71876,-233.136346 1517.24203,-232.840227 1514.70783,-245.306828 C1514.35655,-246.994706 1514.80819,-249.570939 1514.05546,-250.400072 C1508.03359,-256.500119 1504.19466,-263.518135 1505.72521,-273.675009 C1508.35978,-290.672228 1499.10116,-310.245681 1513.17727,-324.637055 C1515.6362,-336.955597 1515.78675,-349.214915 1513.05182,-361.444621 C1503.31647,-368.403413 1505.87576,-380.070494 1505.7754,-390.582711 C1505.62485,-414.331439 1505.39903,-438.080166 1505.87576,-461.799282 C1506.07649,-470.682846 1500.93281,-474.177048 1497.06878,-479.832917 L1497.06878,-522.651695 C1495.8895,-524.398796 1495.18695,-526.086673 1494.10803,-527.063865 C1488.68835,-531.801766 1486.5807,-537.961037 1487.81016,-545.837797 C1489.01454,-553.803393 1486.80652,-559.933052 1481.4872,-564.670953 C1480.40829,-565.588921 1479.02828,-567.336022 1478.97809,-568.698168 C1478.80246,-579.684176 1478.401,-590.670183 1479.02828,-601.567355 C1479.50501,-609.799457 1476.26825,-614.596582 1472.25368,-620.311675 C1469.81984,-623.746653 1470.87367,-630.705445 1468.59038,-634.643825 C1465.22817,-640.595812 1460.41067,-645.215266 1456.14519,-650.338121 C1448.74331,-659.340132 1441.31634,-668.223696 1434.0901,-677.048037 L1434.0901,-699.345782 C1427.74205,-707.163318 1422.12165,-716.16533 1414.84523,-722.294989 C1406.69062,-729.135333 1408.92372,-741.661158 1402.47531,-749.212188 C1387.39555,-766.920092 1372.8678,-785.249845 1357.61241,-803.846106 C1351.96691,-802.3359 1346.17087,-802.247064 1344.59013,-811.959761 C1343.98794,-815.335515 1344.33922,-819.806909 1342.65811,-821.790905 C1315.45935,-855.637284 1288.05986,-889.246767 1260.38437,-922.589744 C1258.77854,-924.484904 1254.63851,-922.767415 1252.07922,-924.159174 C1245.75626,-927.56454 1242.21841,-938.017534 1233.41143,-934.997122 C1230.90232,-937.869474 1228.4183,-940.80105 1225.90919,-943.673403 C1225.93428,-945.331668 1226.00956,-946.989933 1226.00956,-948.707422 C1225.93428,-951.846281 1222.7979,-954.511351 1218.90877,-954.955529 C1218.50732,-960.078384 1220.79061,-966.208043 1224.52918,-967.747861 C1225.83392,-968.310487 1227.51502,-968.073592 1228.94522,-967.836697 C1232.20706,-967.333295 1235.31836,-968.606605 1236.02091,-972.485762 C1236.322,-974.084803 1232.95979,-978.319302 1231.10305,-978.526585 C1223.65099,-979.178047 1216.09857,-978.408138 1208.74688,-979.029987 C1206.21267,-979.296494 1203.77884,-982.050399 1201.54573,-984.093619 C1198.05806,-987.202866 1194.79622,-990.72668 1191.35874,-994.04321 C1204.30575,-1009.88557 1215.87275,-1024.09927 1227.51502,-1038.31297 C1226.91284,-1039.55667 1226.4612,-1041.03726 1225.63319,-1042.10329 C1219.6866,-1050.0985 1213.99092,-1058.41944 1203.37738,-1055.69514 C1199.0868,-1054.65873 1194.41985,-1055.45825 1189.95364,-1055.60631 C1186.21506,-1055.66553 1184.08232,-1059.04129 1183.5805,-1067.21417 C1183.37977,-1071.12293 1182.87795,-1076.03851 1179.84192,-1076.00889 C1167.79819,-1075.83122 1162.15269,-1087.11335 1155.30282,-1095.87847 C1151.36352,-1100.88287 1147.09803,-1098.69159 1142.90781,-1099.57995 C1135.58121,-1108.61157 1128.22952,-1117.6432 1120.70218,-1126.79327 C1120.97819,-1133.81128 1121.98183,-1141.42154 1113.77704,-1143.28708 C1110.99193,-1143.87932 1107.80535,-1143.76087 1105.6977,-1145.5672 C1097.518,-1152.34832 1093.72924,-1167.15426 1080.95787,-1165.17026 C1074.43418,-1172.45479 1067.98577,-1179.79853 1061.51226,-1187.14228 C1050.32163,-1184.68449 1046.7336,-1197.06226 1040.28519,-1203.57687 C1035.66842,-1208.22594 1031.80439,-1213.82258 1027.5389,-1218.97505 C1026.15889,-1219.33039 1024.82907,-1219.68573 1023.39887,-1219.98185 C1017.72828,-1221.07749 1010.25113,-1216.30998 1006.78856,-1223.0911 C1002.07143,-1232.33001 993.289544,-1228.39163 988.045503,-1234.43245 C984.909115,-1237.98588 982.701097,-1242.72378 977.105781,-1242.10193 C969.728995,-1241.24318 962.302028,-1241.92426 955.10088,-1241.92426 C952.742316,-1244.79661 950.835392,-1247.63935 948.426646,-1249.91946 C943.634244,-1254.7462 941.100043,-1260.19479 941.376045,-1268.36767 C941.526591,-1273.01673 934.902539,-1275.91869 930.787598,-1274.91189 C926.095561,-1273.72742 924.03809,-1268.36767 920.525335,-1265.49531 C914.026739,-1260.16517 907.503051,-1264.9623 905.847038,-1275.6818 C904.617574,-1283.73623 903.237563,-1285.63139 898.018613,-1285.74984 C893.477122,-1285.80906 888.985814,-1286.43091 884.594871,-1285.60178 C876.063895,-1283.94351 870.568942,-1288.97753 865.901996,-1296.55817 L821.515829,-1296.55817 C814.74123,-1304.16843 808.267725,-1311.39373 801.769128,-1318.64864 C791.557048,-1314.68065 788.395568,-1331.64825 778.584946,-1329.84193 C773.918,-1329.07202 771.985985,-1336.38615 768.297592,-1338.81433 C763.429917,-1341.9828 756.605136,-1339.52501 753.042199,-1346.75031 C751.310913,-1350.36296 748.801802,-1351.75472 745.690505,-1351.60666 C742.754846,-1351.36976 739.693731,-1351.99161 736.783162,-1351.39938 C731.539121,-1350.4518 728.904555,-1354.86397 725.61762,-1358.29894 C720.273214,-1363.98443 706.698925,-1364.10287 701.429793,-1358.86157 C692.52245,-1349.88917 692.447177,-1349.74111 679.926715,-1359.80915 C677.467786,-1361.73392 675.184496,-1363.09607 671.847378,-1362.53344 C664.219682,-1361.37858 657.445083,-1362.74073 652.251224,-1371.12089 C650.971578,-1373.19372 646.806454,-1372.30536 644.22207,-1373.57867 C641.763142,-1374.85199 639.655489,-1377.16171 637.397289,-1379.02726 C639.730762,-1380.83358 642.064235,-1384.15012 644.422799,-1384.09089 C649.415929,-1384.09089 653.029049,-1386.22295 655.713797,-1390.72395 C658.875276,-1396.02448 663.316402,-1394.69194 667.58189,-1395.5803 C670.868825,-1396.29099 672.675385,-1399.63713 671.772105,-1402.24297 C670.467368,-1406.24058 667.657164,-1407.51389 664.370229,-1406.32941 C660.907656,-1405.17455 658.323272,-1406.32941 656.667259,-1410.00129 C655.061428,-1413.49549 656.742532,-1415.09453 664.671322,-1417.2562 C666.076424,-1417.64115 668.184077,-1416.90085 668.861537,-1417.84843 C673.879758,-1425.07373 679.299437,-1429.42668 687.855504,-1428.56794 C698.167949,-1427.44268 708.656032,-1428.33104 719.068841,-1428.27182 C722.180138,-1428.2422 725.216162,-1429.54513 725.993986,-1433.36506 C726.29508,-1434.60876 722.330685,-1438.9617 720.273214,-1438.99132 L718.316108,-1438.99132 C718.36629,-1438.99132 718.441563,-1439.08015 718.567019,-1439.1986 C720.599398,-1441.06415 720.524125,-1445.23942 716.936097,-1447.69721 C712.670609,-1450.77684 707.376385,-1451.99093 702.48362,-1453.97493 C699.196685,-1456.66961 695.985023,-1456.75844 693.275183,-1453.73803 C690.439888,-1450.56956 692.622815,-1446.89769 699.447596,-1442.95931 C702.709439,-1441.53794 705.996374,-1440.26463 709.233127,-1438.99132 C686.048945,-1439.22821 662.889853,-1439.28744 639.730762,-1439.1986 C636.845285,-1439.1986 632.680161,-1439.28744 631.601244,-1437.33305 C627.059753,-1428.74561 619.105872,-1429.63396 612.983642,-1425.69558 C609.370523,-1423.35624 607.689419,-1416.57512 602.395196,-1417.40426 C595.043501,-1418.55912 592.986031,-1408.43186 588.017991,-1407.09932 C582.171764,-1405.58912 576.526265,-1405.50028 572.913145,-1398.71916 C571.031312,-1395.40263 568.472019,-1394.84 565.08472,-1395.25457 C557.60757,-1396.14293 550.230785,-1396.49827 545.388201,-1387.20014 C543.832553,-1384.15012 540.796529,-1384.15012 537.459412,-1384.29817 C530.032444,-1384.68313 522.480021,-1383.76516 515.078145,-1384.59429 C508.228273,-1385.33459 504.640244,-1380.35979 499.973299,-1375.85879 C496.987457,-1372.98644 491.367049,-1374.23014 488.230661,-1371.41701 C483.613897,-1367.1529 480.151324,-1361.91159 473.276361,-1362.29655 C459.902802,-1363.00723 446.378695,-1362.35577 433.005135,-1362.56305 C430.270205,-1362.65189 426.180354,-1363.00723 425.126528,-1365.10968 C418.853751,-1376.86559 409.394404,-1372.83838 400.562335,-1373.51945 C397.50122,-1370.02525 394.515378,-1366.05726 391.102987,-1362.74073 C386.762226,-1358.41739 384.428753,-1350.24451 377.001786,-1351.48821 C369.976276,-1352.52463 368.395536,-1342.04202 362.800219,-1340.76871 C358.50964,-1339.85074 353.867785,-1340.91677 351.157946,-1335.4978 C347.519735,-1328.21327 340.218223,-1331.70748 336.002917,-1327.62104 C331.386154,-1323.14964 327.873399,-1317.0496 321.048618,-1318.64864 C316.657674,-1313.96996 312.166366,-1309.43934 307.900878,-1304.49416 C301.427373,-1296.91352 295.229869,-1289.03676 288.90691,-1281.30806 C289.057457,-1271.65458 285.544702,-1264.51812 279.522837,-1258.59574 C278.69483,-1257.82584 278.845377,-1255.07193 279.196652,-1253.47289 C279.949385,-1249.23839 278.69483,-1246.63255 276.311175,-1243.7898 C265.622364,-1231.11592 255.084099,-1218.14592 244.67129,-1205.08708 C239.653068,-1198.8982 232.502103,-1194.04185 234.308663,-1182.967 C230.39445,-1177.69609 227.132606,-1170.85574 222.340205,-1167.42077 C214.51178,-1161.91296 218.752177,-1150.51238 213.056495,-1144.44195 C207.436088,-1138.37151 202.367684,-1131.59039 197.123643,-1125.135 C192.908337,-1119.95292 189.069398,-1114.26744 184.427543,-1109.79605 C178.255131,-1103.75523 183.072623,-1091.58474 174.993287,-1087.02451 C171.831807,-1085.18858 171.229621,-1081.93127 171.580896,-1077.75599 C171.982354,-1072.33702 171.631079,-1066.82921 171.631079,-1060.13693 C167.867413,-1055.69514 163.50156,-1050.72035 159.135707,-1045.77516 C145.335599,-1046.24895 139.589735,-1031.88719 131.359853,-1022.38178 C119.341212,-1008.64187 108.075306,-994.072822 95.5799346,-978.852316 C92.1173619,-978.852316 87.7013271,-978.408138 83.3856568,-978.941152 C77.6899756,-979.533389 71.2164701,-975.77268 66.5495243,-981.724668 C62.2087629,-987.350925 57.8930926,-991.348529 51.2941316,-989.749488 C47.0788257,-994.783507 42.3616976,-999.40296 38.7234872,-1005.05883 C37.1176564,-1007.33894 36.6911075,-1012.2249 37.5692963,-1015.09726 C39.9027692,-1023.03324 48.7850209,-1027.23813 46.3260925,-1038.07608 C63.0869516,-1058.5675 79.897993,-1078.97008 96.6588522,-1099.40228 C107.824395,-1097.00372 111.261876,-1109.58877 117.835746,-1115.98493 C118.563388,-1116.69562 117.936111,-1119.47913 117.936111,-1121.34468 C108.62731,-1121.61119 108.476763,-1121.78886 98.3399563,-1113.37909 C95.7806634,-1111.30625 93.7231927,-1110.15139 90.3358933,-1110.21061 C77.0376069,-1110.56596 63.6640471,-1110.38829 50.691945,-1110.38829 C45.046446,-1101.74162 35.4114611,-1096.91488 37.3685674,-1083.47109 C32.3754372,-1077.07492 26.2782983,-1071.33022 28.2354046,-1060.78839 C22.1382658,-1055.07329 18.2993265,-1047.99606 18.7258753,-1038.25375 C12.1018231,-1032.894 10.5461745,-1024.51383 9.04070814,-1015.68949 C8.36324827,-1011.60305 5.0261311,-1010.4778 1.66392282,-1011.7215 C-1.77355877,-1012.99481 -3.90630283,-1011.27732 -6.11432021,-1008.02002 C-8.84925082,-1004.02241 -11.5841814,-999.669467 -17.0038604,-1000.64666 C-23.9791881,-1001.89036 -25.5599278,-991.289305 -31.2054267,-989.927159 C-35.5210971,-988.949967 -40.0374962,-989.512593 -42.3709692,-993.983986 C-41.1916871,-1001.44618 -32.6607109,-1002.86755 -34.2163595,-1012.04723 C-34.4672706,-1013.73511 -34.7432728,-1016.31134 -33.9403574,-1017.34776 C-27.8432185,-1025.25413 -22.1726284,-1034.19692 -14.9463897,-1040.29697 C-6.74159787,-1047.16692 -9.27579963,-1059.95925 -2.57647418,-1067.21417 C4.14794237,-1074.40985 10.0192613,-1082.7604 16.5680401,-1090.2226 C19.0269685,-1092.9765 20.3818883,-1095.55273 19.4786085,-1099.75762 C18.5251464,-1103.81445 19.7797017,-1106.80525 22.7655434,-1109.05575 C24.0200987,-1109.97372 24.9484697,-1111.48393 25.9772051,-1112.84607 C28.5114068,-1116.1626 29.9165088,-1125.60879 27.608127,-1127.47434 C18.6255108,-1134.72925 19.0269685,-1145.41914 19.4786085,-1156.34592 C19.829884,-1163.89695 27.382307,-1169.19748 32.6765305,-1165.05182 C36.1892854,-1162.2683 38.9994893,-1158.06341 42.1107866,-1154.50999 C58.0687303,-1174.08344 73.9764919,-1193.36077 89.5078868,-1212.96384 C91.1388087,-1215.00706 91.3897198,-1219.83379 90.8126243,-1222.97265 C90.3358933,-1225.75617 87.8267827,-1227.94745 86.1456785,-1230.37562 C77.6899756,-1220.1003 69.3597283,-1209.76575 60.7785698,-1199.49043 C60.4022032,-1199.04625 58.5203702,-1199.84578 57.767637,-1200.6453 C56.7138106,-1201.74094 55.4592552,-1203.33998 55.3588908,-1204.76135 C55.158162,-1211.95703 55.2585264,-1219.12311 55.2585264,-1225.46005 C64.3665981,-1236.62373 72.822301,-1246.95828 81.2278217,-1257.29282 C79.8478108,-1263.2152 76.2346914,-1264.10355 71.7935656,-1263.89627 C65.2447868,-1263.57054 63.638956,-1253.56173 57.6170904,-1253.02871 C53.0254179,-1252.70298 48.7097476,-1252.14035 46.225728,-1247.07672 C42.5624265,-1239.73298 34.5332724,-1244.79661 31.0706997,-1239.2888 C25.7513851,-1230.8198 18.9266041,-1230.19795 11.3992722,-1230.90864 C9.89380577,-1231.0567 8.46361269,-1230.90864 6.02977536,-1230.90864 C-2.95284078,-1219.98185 -13.0394656,-1209.14391 -21.5704418,-1196.6773 C-29.6999604,-1184.83255 -44.4284399,-1178.43639 -43.9266178,-1158.86293 C-50.1993944,-1151.13423 -55.7947111,-1141.95455 -63.071132,-1135.91373 C-72.4301148,-1128.24425 -68.1395356,-1111.89849 -78.4519804,-1104.96931 C-84.7749392,-1100.82365 -90.0691627,-1093.4799 -88.1120564,-1082.7604 C-91.0477158,-1078.79241 -93.9833753,-1074.79481 -96.9441259,-1070.7972 C-95.6393883,-1062.59471 -99.8296031,-1057.8272 -103.743816,-1052.20094 C-106.10238,-1048.64752 -105.123827,-1041.68872 -107.331844,-1037.80957 C-110.668961,-1032.09448 -114.834085,-1028.06726 -115.235543,-1019.6871 C-115.662091,-1011.51422 -126.275629,-1007.60545 -123.766519,-996.826727 C-128.659285,-984.419349 -143.412855,-979.888732 -142.183391,-962.151216 C-142.032844,-959.841489 -146.097604,-957.02836 -148.180165,-954.452127 C-150.262727,-951.846281 -152.069287,-948.796258 -154.528215,-946.871486 C-160.274079,-942.163197 -157.990788,-933.516528 -161.001721,-928.245613 C-165.317391,-920.901867 -171.339257,-915.12755 -176.658571,-908.642549 C-179.79496,-904.793004 -183.106986,-901.091519 -186.017554,-896.975468 C-186.795378,-895.820605 -186.720105,-893.422043 -186.393921,-891.763777 C-185.289912,-885.071492 -189.505218,-882.19914 -192.440877,-878.379208 C-199.466387,-869.28836 -199.516569,-869.317972 -208.850461,-880.126308 C-212.789765,-875.181125 -217.230891,-870.680119 -220.693463,-865.320369 C-222.19893,-862.892194 -222.901481,-858.124682 -222.073474,-855.311553 C-219.413817,-846.783332 -213.868682,-840.387166 -207.395177,-836.656069 C-203.731875,-834.553625 -198.563107,-836.271114 -194.121981,-836.35995 C-191.085958,-836.389562 -187.799023,-835.027415 -187.071381,-831.237095 C-186.117919,-826.321523 -184.963728,-820.695266 -189.204125,-816.401543 C-191.487415,-814.15104 -195.175808,-811.219464 -195.125626,-808.672842 C-194.749259,-800.618411 -196.58091,-794.696035 -201.850042,-790.017358 C-204.409335,-787.766855 -204.835884,-784.479937 -204.484608,-780.393497 C-203.631511,-771.124979 -203.957695,-762.300639 -211.284298,-756.467098 C-212.338125,-755.608354 -213.241405,-753.476298 -213.191222,-752.08454 C-213.191222,-746.547119 -213.417042,-741.128145 -217.682531,-737.870838 C-223.629123,-733.429056 -220.442552,-724.338209 -224.105854,-719.274577 C-228.045158,-713.855603 -231.984461,-709.265762 -231.382275,-700.8856 C-230.754997,-691.853976 -231.73355,-682.61507 -231.106273,-673.583447 C-230.504086,-664.699883 -236.149585,-661.324128 -239.737613,-655.934766 C-239.812886,-652.440564 -240.189253,-648.857527 -240.164162,-645.274489 C-239.913251,-632.659829 -238.257238,-619.571378 -249.171869,-611.487335 C-246.838396,-600.530939 -253.663177,-595.378472 -258.606125,-588.834246 C-260.864325,-585.843447 -263.273071,-585.043926 -265.982911,-584.00751 C-280.360115,-578.292417 -284.600512,-571.985087 -284.901605,-554.010676 C-284.901605,-548.177135 -286.206342,-543.764965 -289.643824,-539.945033 C-294.059859,-534.970237 -298.149709,-529.640099 -302.917019,-523.895394 C-302.917019,-495.379154 -303.368659,-466.270676 -302.615926,-437.162198 C-302.339924,-426.620369 -305.87777,-420.224203 -312,-414.301827 C-306.053408,-408.349839 -302.540653,-402.012897 -302.615926,-391.500679 C-303.092657,-318.537007 -302.917019,-245.662171 -302.917019,-173.053842 C-300.433,-170.151877 -298.40062,-167.397973 -296.217694,-164.99941 C-293.783857,-162.304729 -294.436225,-160.11345 -297.848616,-157.12265 C-301.587191,-153.835732 -303.368659,-149.275502 -302.942111,-143.293902 C-302.490471,-136.305499 -304.096301,-129.020976 -298.475894,-123.542778 C-296.318058,-121.588394 -294.386043,-118.034969 -294.160223,-114.955333 C-293.507854,-107.759647 -293.63331,-100.356677 -294.009677,-93.1313779 C-294.386043,-87.1201663 -292.554392,-82.6191605 -288.840909,-79.30263 C-284.575421,-75.4826975 -284.424874,-70.0637235 -285.127425,-64.8520326 C-286.407071,-54.4582628 -282.392494,-47.6771423 -276.019353,-41.9028258 C-276.019353,-33.5522756 -275.843715,-25.2609493 -276.094627,-16.9992348 C-276.194991,-16.9992348 -276.220082,-16.9696229 -276.270264,-16.940011 C-277.800822,-15.4594171 -277.374273,-13.0312429 -275.843715,-10.2773381 C-275.542622,-8.26373025 -274.865162,-6.48701746 -273.133876,-5.12487099 C-267.56365,-0.653477131 -266.208731,5.92036019 -266.785826,13.5602252 C-260.713778,19.1864824 -257.000294,26.3821692 -257.326479,36.1244776 C-248.092952,42.8463744 -248.795503,53.9212174 -249.046414,64.7887773 C-249.121687,66.4470426 -248.74532,68.8456049 -247.791858,69.55629 C-238.432876,76.6335293 -240.264526,87.9452674 -240.11398,98.6055441 C-240.11398,100.145362 -239.336155,102.395865 -238.357602,102.988102 C-228.296069,109.56194 -233.439745,127.388291 -222.675661,133.725234 C-218.886904,135.975736 -215.700333,140.743249 -213.241405,145.155419 C-209.377374,152.380718 -201.925316,147.761265 -197.93583,152.824896 C-189.630673,163.27789 -181.701884,174.056614 -174.300007,183.769311 C-163.410467,183.769311 -154.553306,183.591639 -145.746328,183.887758 C-144.617228,183.976594 -143.212126,186.079037 -142.60994,187.648467 C-140.80338,192.297532 -143.212126,198.545639 -139.373187,202.365571 C-134.405148,207.221919 -131.444397,212.937012 -132.749135,220.93222 C-123.942157,240.031882 -123.590881,240.920239 -123.590881,254.660151 C-118.34684,261.056317 -112.249701,266.77141 -108.109668,274.203992 C-104.245638,281.10356 -104.546731,290.164795 -98.6754122,296.975527 C-92.8542755,303.727036 -97.3957658,313.647016 -106.503837,314.594596 C-109.690408,314.831491 -113.077707,315.216445 -113.604621,319.214049 C-113.880623,321.346104 -111.020237,324.336904 -109.364224,326.824302 C-108.460944,328.186449 -106.303109,329.578207 -106.403473,330.673846 C-107.557664,341.12684 -102.112894,346.989992 -96.8437614,353.326935 C-81.3625487,372.041643 -66.1824293,390.756351 -50.9019454,409.500671 C-53.1350539,411.662338 -54.7157936,414.297795 -55.292889,417.732773 C-56.3968977,421.819213 -58.0780018,425.343026 -58.0780018,429.014899 C-58.2536396,432.420266 -56.5474443,436.062527 -55.7445289,439.556729 C-53.3106916,437.424673 -49.9735744,435.855244 -48.693928,432.982891 C-46.4608195,428.274602 -44.9804442,422.88524 -44.3531666,417.52549 C-36.675288,426.942068 -28.8468627,436.417869 -21.2442574,445.716 C-16.8031316,447.315041 -12.5376435,444.709196 -8.67361307,449.861663 C-8.27215537,450.335453 -7.94597098,450.838855 -7.59469549,451.342257 C-7.74524213,451.460704 -8.22197315,451.697599 -8.22197315,451.756823 C-7.6197866,454.658787 -7.14305557,458.182601 -5.46195144,460.077761 C-2.97793189,462.89089 -1.07100779,462.89089 -0.243001275,460.906894 C0.258820855,461.558355 0.760642986,462.298652 1.36282954,462.89089 C0.258820855,462.328264 -0.769914513,461.94331 -1.07100779,462.26904 C-3.25393406,465.25984 -2.67683861,468.428311 -0.895370045,471.86329 C0.936280732,475.061373 2.96866036,475.564775 5.90431983,472.277856 C6.48141528,471.685618 6.05486647,469.612787 5.60322655,468.369088 C5.22685995,467.066165 4.47412675,465.73363 3.64612024,464.726826 C7.03341962,467.628791 10.8723589,469.760846 15.9658535,469.34628 C20.1560683,474.557971 24.9986519,479.177424 28.3859513,485.010964 C32.5259839,491.999368 39.6016759,487.764869 43.867164,492.591605 C48.2079254,497.655237 52.2726847,502.866928 56.4879906,508.10823 C66.2233399,520.130654 66.1229755,521.611248 73.8259452,522.58844 C81.7045527,523.53602 83.5863857,536.269128 92.4686374,534.166685 C97.3614032,533.071045 99.5192383,539.644882 102.831264,542.872577 C107.347664,547.195912 109.957139,556.197923 116.355371,555.51685 C125.965265,554.539658 129.2522,571.063087 139.439189,566.8582 C142.726124,570.470849 145.962877,574.113111 149.149447,577.666536 C158.006608,575.149526 162.924465,582.493273 167.516137,589.363229 C172.433994,596.706975 178.355495,600.734191 186.083556,600.911862 C190.825775,608.818234 197.023278,612.075541 205.152797,610.861454 C207.787363,610.446887 212.103033,610.743006 213.181951,612.638166 C217.673259,621.314447 225.551866,620.692598 231.874825,624.068352 C236.165405,635.291254 248.685867,629.339267 253.428086,639.584977 C255.209554,643.316074 257.643392,644.737444 261.055782,643.552969 C264.41799,642.368494 266.851828,643.671416 268.733661,647.284066 C272.396962,654.213246 277.841732,655.338497 284.164691,654.657424 C289.35855,654.094798 289.35855,654.568588 299.294629,662.741467 C300.373546,663.718659 301.60301,665.347312 302.807383,665.406536 C307.173236,665.554596 311.714726,665.080806 314.449657,670.49978 C318.062776,677.784302 325.941384,673.993981 329.504321,678.524599 C335.200002,685.868345 341.196776,688.355743 349.025202,687.496999 C357.907453,686.549418 366.864978,686.223688 372.410113,697.565038 C378.331614,697.831545 384.228024,699.075244 390.02407,698.157275 C398.479773,696.883964 403.924543,701.740313 408.491124,709.084059 C410.197319,709.202506 411.677695,709.350566 413.107888,709.350566 C417.599196,709.380178 422.065413,709.350566 426.53163,709.350566 C427.610547,708.195703 428.664374,706.803944 429.793474,705.767528 C439.579005,697.713097 441.96266,686.016405 440.005554,672.809506 L440.005554,672.809506 Z" id="Fill-7" transform="translate(745.000000, -350.500000) rotate(-9.000000) translate(-745.000000, 350.500000) "></path>
        </g>
    </g>
</svg>